<svg width="541" height="714" viewBox="0 0 541 714" fill="none" xmlns="http://www.w3.org/2000/svg">
<path d="M374.782 713.514C283.31 713.514 209.157 639.361 209.157 547.889C209.157 456.417 283.31 382.264 374.782 382.264C466.255 382.264 540.407 456.417 540.407 547.889C540.407 639.361 466.255 713.514 374.782 713.514Z" fill="#D5DCE8"/>
<path fill-rule="evenodd" clip-rule="evenodd" d="M196.889 713.514H285.222L258.231 615.366H227.56L247.19 684.069H226.333C210.072 684.069 196.889 697.252 196.889 713.514Z" fill="#FF8181"/>
<path fill-rule="evenodd" clip-rule="evenodd" d="M0.592659 713.514H88.9261L107.329 615.366H76.6575L63.1622 684.069H30.0371C13.7754 684.069 0.592659 697.252 0.592659 713.514Z" fill="#FF8181"/>
<path fill-rule="evenodd" clip-rule="evenodd" d="M423.856 320.921H140.529C115.388 320.921 94.3139 339.92 91.7172 364.926L63.1619 639.902H112.236L155.176 419.069H345.338C388.703 419.069 423.856 383.915 423.856 340.551V320.921Z" fill="#0A1449"/>
<path fill-rule="evenodd" clip-rule="evenodd" d="M436.125 320.921H178.481C151.378 320.921 129.406 342.892 129.406 369.995C129.406 375.684 130.396 381.33 132.33 386.68L223.88 639.902H272.954L226.333 419.069H357.606C400.971 419.069 436.125 383.915 436.125 340.551V320.921Z" fill="#0A1449"/>
<path fill-rule="evenodd" clip-rule="evenodd" d="M398.508 343.332L383.835 354.583C371.47 355.143 362.665 357.247 357.42 360.893C349.553 366.362 333.389 382.19 340.982 393.938C348.575 405.686 364.097 397.192 373.08 393.051C379.068 390.291 385.857 383.085 393.444 371.434L411.1 360.509L398.508 343.332Z" fill="#FF8181"/>
<path fill-rule="evenodd" clip-rule="evenodd" d="M210.104 183.797L195.245 172.794C191.298 161.063 186.849 153.179 181.898 149.142C174.472 143.086 154.803 131.912 145.603 142.449C136.402 152.986 148.846 165.565 155.302 173.059C159.606 178.055 168.404 182.594 181.695 186.676L197.063 200.636L210.104 183.797Z" fill="#FF8181"/>
<path fill-rule="evenodd" clip-rule="evenodd" d="M427.537 133.213C407.362 129.941 392.231 128.306 382.144 128.306C372.056 128.306 359.788 130.35 345.338 134.44V168.792H427.537V133.213Z" fill="#FF8181"/>
<path fill-rule="evenodd" clip-rule="evenodd" d="M420.493 85.324C420.792 85.3515 421.096 85.3656 421.403 85.3656C426.823 85.3656 431.218 80.9713 431.218 75.5508C431.218 70.1302 426.823 65.736 421.403 65.736C420.99 65.736 420.583 65.7615 420.183 65.811C415.853 48.8401 400.464 36.2915 382.144 36.2915C360.461 36.2915 342.884 53.8685 342.884 75.5508C342.884 92.2126 353.264 106.45 367.91 112.15L362.514 163.884H401.773L396.377 112.15C408.068 107.6 417.04 97.6107 420.185 85.2907L420.493 85.324Z" fill="#FF8181"/>
<path fill-rule="evenodd" clip-rule="evenodd" d="M420.176 65.7362C409.108 66.4453 397.249 65.2185 384.597 62.0556C378.054 60.4198 371.511 56.3303 364.968 49.7871C360.119 53.8621 356.029 56.3158 352.699 57.1482C349.428 57.9661 346.974 58.784 345.338 59.6019C352.699 29.3396 370.284 19.1158 398.093 28.9306C413.736 34.4519 421.097 46.7204 420.176 65.7362Z" fill="#0A1449"/>
<path d="M425.083 59.6018C408.822 59.6018 395.639 46.4191 395.639 30.1573C395.639 13.8956 408.822 0.712891 425.083 0.712891C441.345 0.712891 454.528 13.8956 454.528 30.1573C454.528 46.4191 441.345 59.6018 425.083 59.6018Z" fill="#0A1449"/>
<path fill-rule="evenodd" clip-rule="evenodd" d="M422.63 130.79C439.806 129.972 456.573 145.512 472.931 177.41C487.759 206.325 499.562 240.279 508.342 279.274C510.011 286.688 507.251 294.4 501.255 299.071L405.454 373.706L387.051 341.808L409.134 320.952H324.482C327.753 302.12 329.798 285.751 330.616 271.847C331.434 257.943 331.434 241.585 330.616 222.773L293.019 266.812C285.996 275.038 273.642 276.033 265.393 269.037L183.394 199.494L207.931 171.276L277.861 220.35C289.312 193.359 300.762 173.321 312.213 160.234C323.664 147.148 335.523 137.333 347.792 130.79C344.52 154.509 351.881 166.369 369.875 166.369C387.869 166.369 405.454 154.509 422.63 130.79Z" fill="#1755ED"/>
<path d="M405.454 373.676L387.051 341.778L458.208 277.982L418.949 206.824" stroke="#364747" stroke-width="4" stroke-linecap="round" stroke-linejoin="round"/>
</svg>
