<svg width="38" height="38" viewBox="0 0 38 38" fill="none" xmlns="http://www.w3.org/2000/svg">
<circle cx="19.001" cy="19" r="19" fill="#FDC510"/>
<ellipse cx="19.0008" cy="18.9999" rx="16.4667" ry="16.4667" fill="#1F2733"/>
<path d="M23.5015 28.8801C23.4871 28.8801 23.4727 28.8801 23.4581 28.8799C22.0961 28.8731 20.6133 28.5281 19.0507 27.854C18.626 27.6709 18.4305 27.1782 18.6136 26.7538C18.7965 26.3291 19.2892 26.1336 19.7138 26.3167C21.0493 26.8929 22.347 27.2002 23.4666 27.2057C24.8727 27.212 26.0483 26.791 26.863 25.9855L26.8669 25.9812C27.3413 25.4528 27.3123 24.6529 26.8013 24.16C24.7857 22.2164 23.8414 22.3496 22.9731 23.196L21.5426 24.6161C21.2973 24.8594 20.9278 24.9274 20.6122 24.7868C20.5307 24.7504 18.1818 24.1868 16.0005 22.0056V22.0008C13.8188 19.819 13.2507 17.4706 13.2145 17.389C13.0739 17.0734 13.1417 16.7039 13.385 16.4588L14.805 15.0281C15.6517 14.1596 15.3286 13.4157 13.385 11.4001C12.8923 10.8891 12.5483 10.6601 12.0201 11.1342L12.0157 11.1382C11.2103 11.9528 10.7884 13.1267 10.7954 14.5346C10.8089 17.2715 12.3645 20.4528 14.9565 23.0448C15.4509 23.539 16.0158 24.0305 16.6353 24.5056C17.0022 24.787 17.0715 25.3124 16.7903 25.6793C16.5089 26.0462 15.9833 26.1155 15.6166 25.8343C14.9389 25.3148 14.3187 24.7746 13.7728 24.2285C10.8758 21.3317 9.1369 17.711 9.1212 14.5431C9.11183 12.6694 9.70848 11.0773 10.8471 9.93917C10.8575 9.92848 10.8687 9.91802 10.8798 9.90799L10.9018 9.88815C12.1043 8.80885 13.9247 8.87468 15.0463 10.0377C16.0866 11.1164 16.6874 12.0224 16.9379 12.8887C17.2858 14.0929 16.9706 15.2071 16.0005 16.2003C15.999 16.202 15.9972 16.2036 15.9957 16.2051L15.0053 17.2029C15.379 17.8575 16.1703 19.084 17.4933 20.407L17.594 20.5075C18.9168 21.8303 20.1431 22.6218 20.7984 22.9957L21.7961 22.0056L21.8009 22.0008C22.7941 21.0307 23.9085 20.7155 25.1127 21.0634C25.979 21.3136 26.8848 21.9147 27.9634 22.9547C29.1267 24.0765 29.1923 25.897 28.113 27.0995L28.0934 27.1213C28.0833 27.1327 28.0729 27.1436 28.0622 27.1542C26.9325 28.2837 25.3562 28.8801 23.5015 28.8801Z" fill="#FDC510"/>
</svg>
