<svg width="150" height="150" viewBox="0 0 150 150" fill="none" xmlns="http://www.w3.org/2000/svg">
<g clip-path="url(#clip0_1_93)">
<path d="M119.598 45.1939C112.656 42.4881 106.791 37.5507 103.204 31.0198C97.1713 20.0373 85.4994 12.5927 72.0841 12.5927C58.1593 12.5927 46.1136 20.6133 40.3037 32.2857C36.7453 39.4345 30.6902 45.0474 23.2852 48.036C12.3431 52.4522 3.15734 62.545 0.242298 78.3237C-0.0776238 80.0552 -0.0823114 81.8352 0.237611 83.5667C4.76339 108.051 24.3779 118.85 42.23 115.987C52.2278 114.383 62.3487 117.718 69.7594 124.618C84.8279 138.649 108.983 143.048 132.432 128.008C135.179 126.246 138.865 122.549 140.625 119.8C160.83 88.2562 145.863 55.4308 119.598 45.1939V45.1939Z" fill="url(#paint0_linear_1_93)"/>
<path opacity="0.1" d="M133.594 29.467V103.954C133.594 106.38 131.625 108.349 129.199 108.349H20.801C18.3752 108.349 16.4065 106.38 16.4065 103.954V29.467C16.4065 27.0413 18.3752 25.0725 20.801 25.0725H129.199C131.625 25.0725 133.594 27.0413 133.594 29.467V29.467Z" fill="#2626BC"/>
<path d="M91.6145 135.794H58.3857L62.7164 118.625L65.0309 109.454H84.9694L87.2839 118.625L91.6145 135.794Z" fill="white"/>
<path d="M133.594 35.611V110.098C133.594 112.524 131.625 114.493 129.199 114.493H20.801C18.3752 114.493 16.4065 112.524 16.4065 110.098V35.611C16.4065 33.1852 18.3752 31.2164 20.801 31.2164H129.199C131.625 31.2164 133.594 33.1852 133.594 35.611V35.611Z" fill="white"/>
<path d="M133.594 76.3511V110.098C133.594 112.525 131.626 114.493 129.199 114.493H80.9241V77.23C80.9241 76.7445 81.3175 76.3511 81.803 76.3511H133.594Z" fill="white"/>
<path d="M133.594 45.3298V35.6118C133.594 33.1848 131.626 31.2172 129.199 31.2172H20.801C18.3741 31.2172 16.4065 33.1848 16.4065 35.6118V45.3298H133.594Z" fill="white"/>
<path d="M16.4065 99.7301V110.098C16.4065 112.525 18.3741 114.493 20.801 114.493H129.199C131.626 114.493 133.594 112.525 133.594 110.098V99.7301H16.4065Z" fill="white"/>
<path d="M27.5635 39.7596C28.3724 39.7596 29.0283 39.1036 29.0283 38.2947V38.2523C29.0283 37.4434 28.3724 36.7874 27.5635 36.7874C26.7546 36.7874 26.0986 37.4434 26.0986 38.2523V38.2947C26.0986 39.1036 26.7546 39.7596 27.5635 39.7596Z" fill="#2626BC"/>
<path d="M33.2249 39.7596C34.0337 39.7596 34.6897 39.1036 34.6897 38.2947V38.2523C34.6897 37.4434 34.0337 36.7874 33.2249 36.7874C32.416 36.7874 31.76 37.4434 31.76 38.2523V38.2947C31.76 39.1036 32.416 39.7596 33.2249 39.7596Z" fill="#2626BC"/>
<path d="M38.8862 39.7596C39.6951 39.7596 40.3511 39.1036 40.3511 38.2947V38.2523C40.3511 37.4434 39.6951 36.7874 38.8862 36.7874C38.0773 36.7874 37.4214 37.4434 37.4214 38.2523V38.2947C37.4214 39.1036 38.0773 39.7596 38.8862 39.7596Z" fill="#2626BC"/>
<path d="M17.8713 46.7947H133.594C134.403 46.7947 135.059 46.1387 135.059 45.3298V35.6118C135.059 32.3809 132.43 29.7524 129.199 29.7524H20.801C17.5702 29.7524 14.9417 32.3809 14.9417 35.6118V110.098C14.9417 113.329 17.5702 115.958 20.801 115.958H85.1L89.7354 134.327H60.2651L63.3137 122.245C63.5115 121.461 63.0363 120.664 62.2517 120.467C61.4677 120.268 60.6708 120.744 60.4731 121.529L57.2437 134.327H52.754C51.9451 134.327 51.2891 134.983 51.2891 135.792C51.2891 136.601 51.9451 137.257 52.754 137.257H58.3848H91.616H97.2468C98.0557 137.257 98.7117 136.601 98.7117 135.792C98.7117 134.983 98.0557 134.327 97.2468 134.327H92.7571L88.1217 115.958H129.199C132.43 115.958 135.059 113.329 135.059 110.098V53.3985C135.059 52.5896 134.403 51.9336 133.594 51.9336C132.785 51.9336 132.129 52.5896 132.129 53.3985V98.2655H17.8713V46.7947ZM20.801 32.6821H129.199C130.815 32.6821 132.129 33.9963 132.129 35.6118V43.865H17.8713V35.6118C17.8713 33.9963 19.1856 32.6821 20.801 32.6821V32.6821ZM132.129 101.195V110.098C132.129 111.714 130.815 113.028 129.199 113.028H20.801C19.1856 113.028 17.8713 111.714 17.8713 110.098V101.195H132.129Z" fill="#2626BC"/>
<path d="M69.0918 91.5978H29.0307C28.2203 91.5978 27.5635 90.941 27.5635 90.1306C27.5635 89.3203 28.2203 88.6635 29.0307 88.6635H69.0918C69.9021 88.6635 70.559 89.3203 70.559 90.1306C70.5593 90.941 69.9024 91.5978 69.0918 91.5978Z" fill="#2626BC"/>
<path d="M69.0918 86.0021H29.0307C28.2203 86.0021 27.5635 85.3453 27.5635 84.5349C27.5635 83.7246 28.2203 83.0677 29.0307 83.0677H69.0918C69.9021 83.0677 70.559 83.7246 70.559 84.5349C70.5593 85.3453 69.9024 86.0021 69.0918 86.0021Z" fill="#2626BC"/>
<path d="M35.6934 80.4064H29.0307C28.2203 80.4064 27.5635 79.7496 27.5635 78.9392C27.5635 78.1289 28.2203 77.472 29.0307 77.472H35.6934C36.5037 77.472 37.1605 78.1289 37.1605 78.9392C37.1605 79.7496 36.504 80.4064 35.6934 80.4064Z" fill="#2626BC"/>
<path d="M69.0918 80.4064H42.2143C41.4039 80.4064 40.7471 79.7496 40.7471 78.9392C40.7471 78.1289 41.4039 77.472 42.2143 77.472H69.0918C69.9022 77.472 70.559 78.1289 70.559 78.9392C70.559 79.7496 69.9024 80.4064 69.0918 80.4064V80.4064Z" fill="#2626BC"/>
<path d="M42.7246 70.7487H29.0307C28.2203 70.7487 27.5635 70.0919 27.5635 69.2815C27.5635 68.4712 28.2203 67.8143 29.0307 67.8143H42.7246C43.535 67.8143 44.1918 68.4712 44.1918 69.2815C44.1921 70.0916 43.5353 70.7487 42.7246 70.7487Z" fill="#2626BC"/>
<path d="M92.8503 91.4197H88.1628C87.6774 91.4197 87.2839 91.0263 87.2839 90.5408V72.709C87.2839 72.2235 87.6774 71.8301 88.1628 71.8301H92.8503C93.3358 71.8301 93.7292 72.2235 93.7292 72.709V90.5408C93.7292 91.0263 93.3358 91.4197 92.8503 91.4197Z" fill="#6583FE"/>
<path d="M83.2664 91.4196H78.5789C78.0934 91.4196 77.7 91.0262 77.7 90.5407V79.5084C77.7 79.023 78.0934 78.6295 78.5789 78.6295H83.2664C83.7518 78.6295 84.1453 79.023 84.1453 79.5084V90.5407C84.1453 91.0262 83.7518 91.4196 83.2664 91.4196Z" fill="#6583FE"/>
<path d="M102.434 91.4197H97.7463C97.2609 91.4197 96.8674 91.0262 96.8674 90.5408V67.5896C96.8674 67.1042 97.2609 66.7107 97.7463 66.7107H102.434C102.919 66.7107 103.313 67.1042 103.313 67.5896V90.5408C103.313 91.0262 102.919 91.4197 102.434 91.4197Z" fill="#6583FE"/>
<path d="M112.018 91.4197H107.33C106.845 91.4197 106.451 91.0263 106.451 90.5408V62.1621C106.451 61.6767 106.845 61.2832 107.33 61.2832H112.018C112.503 61.2832 112.897 61.6767 112.897 62.1621V90.5408C112.897 91.0263 112.503 91.4197 112.018 91.4197Z" fill="#6583FE"/>
<path d="M121.602 91.4197H116.914C116.429 91.4197 116.035 91.0262 116.035 90.5408V57.0427C116.035 56.5573 116.429 56.1638 116.914 56.1638H121.602C122.087 56.1638 122.48 56.5573 122.48 57.0427V90.5408C122.48 91.0262 122.087 91.4197 121.602 91.4197Z" fill="#6583FE"/>
<path d="M34.4777 62.5426C33.9451 62.5426 33.4494 62.252 33.1913 61.778L32.3185 60.1737L31.4458 61.778C31.166 62.2916 30.6061 62.5904 30.0255 62.5365C29.443 62.4832 28.9482 62.0885 28.7666 61.5325L26.7568 55.3772C26.5057 54.6082 26.9256 53.7811 27.6946 53.53C28.4634 53.279 29.2904 53.6988 29.5418 54.4678L30.4969 57.3925L31.0324 56.4088C31.2887 55.9377 31.7824 55.6441 32.3191 55.6441C32.8558 55.6441 33.3495 55.9374 33.6058 56.4088L34.1411 57.3922L35.0962 54.4675C35.3472 53.6985 36.1743 53.2781 36.9433 53.5297C37.7124 53.7808 38.1325 54.6079 37.8811 55.3769L35.8714 61.5322C35.6897 62.0882 35.1949 62.4829 34.6125 62.5362C34.5668 62.5406 34.5219 62.5426 34.4777 62.5426V62.5426Z" fill="#2626BC"/>
<path d="M47.0171 62.5426C46.4844 62.5426 45.9887 62.252 45.7309 61.778L44.8579 60.1737L43.9848 61.778C43.7053 62.2916 43.1467 62.5904 42.5645 62.5365C41.9821 62.4832 41.4873 62.0885 41.3056 61.5325L39.2959 55.3772C39.0448 54.6082 39.4646 53.7811 40.2337 53.53C41.0027 53.279 41.8298 53.6988 42.0808 54.4678L43.0359 57.3925L43.5715 56.4088C43.8278 55.9377 44.3215 55.6441 44.8582 55.6441C45.3949 55.6441 45.8885 55.9374 46.1449 56.4088L46.6802 57.3922L47.6352 54.4675C47.8863 53.6985 48.7134 53.2781 49.4824 53.5297C50.2514 53.7808 50.6716 54.6079 50.4202 55.3769L48.4104 61.5322C48.2288 62.0882 47.734 62.4829 47.1515 62.5362C47.1064 62.5406 47.0616 62.5426 47.0171 62.5426V62.5426Z" fill="#2626BC"/>
<path d="M59.5563 62.5426C59.0237 62.5426 58.528 62.252 58.2699 61.778L57.3971 60.1737L56.5244 61.778C56.2446 62.2916 55.6856 62.5904 55.1041 62.5365C54.5217 62.4832 54.0268 62.0885 53.8452 61.5325L51.8354 55.3772C51.5844 54.6082 52.0042 53.7811 52.7732 53.53C53.5423 53.279 54.3693 53.6988 54.6204 54.4678L55.5755 57.3925L56.111 56.4088C56.3674 55.9377 56.861 55.6441 57.3977 55.6441C57.9345 55.6441 58.4281 55.9374 58.6845 56.4088L59.2197 57.3922L60.1748 54.4675C60.4259 53.6985 61.2529 53.2781 62.0219 53.5297C62.791 53.7808 63.2111 54.6079 62.9597 55.3769L60.95 61.5322C60.7683 62.0882 60.2735 62.4829 59.6911 62.5362C59.6457 62.5406 59.6009 62.5426 59.5563 62.5426V62.5426Z" fill="#2626BC"/>
<path d="M93.4104 53.5265C94.3148 53.5265 95.0481 54.2598 95.0481 55.1642C95.0481 56.0686 94.3148 56.8019 93.4104 56.8019C92.506 56.8019 91.7727 56.0686 91.7727 55.1642C91.7727 54.2598 92.5057 53.5265 93.4104 53.5265Z" fill="#2626BC"/>
<path d="M98.3645 53.5265C99.2689 53.5265 100.002 54.2598 100.002 55.1642C100.002 56.0686 99.2689 56.8019 98.3645 56.8019C97.4601 56.8019 96.7268 56.0686 96.7268 55.1642C96.7268 54.2598 97.4598 53.5265 98.3645 53.5265Z" fill="#2626BC"/>
<path d="M103.319 53.5265C104.223 53.5265 104.956 54.2598 104.956 55.1642C104.956 56.0686 104.223 56.8019 103.319 56.8019C102.414 56.8019 101.681 56.0686 101.681 55.1642C101.681 54.2598 102.414 53.5265 103.319 53.5265Z" fill="#2626BC"/>
<path d="M85.8838 58.3247C85.8838 55.6408 83.7003 53.4576 81.0167 53.4576C78.3331 53.4576 76.1497 55.6411 76.1497 58.3247C76.1497 59.6483 76.6823 60.8486 77.5427 61.7269C76.6826 62.6052 76.1497 63.8055 76.1497 65.1292C76.1497 65.9381 76.8056 66.594 77.6145 66.594C78.4234 66.594 79.0793 65.9381 79.0793 65.1292C79.0793 64.061 79.9486 63.1918 81.0167 63.1918C82.0849 63.1918 82.9542 64.061 82.9542 65.1292C82.9542 65.9381 83.6101 66.594 84.419 66.594C85.2279 66.594 85.8838 65.9381 85.8838 65.1292C85.8838 63.8055 85.3512 62.6052 84.4908 61.7269C85.3512 60.8486 85.8838 59.648 85.8838 58.3247ZM81.0167 56.387C82.0849 56.387 82.9542 57.2562 82.9542 58.3244C82.9542 59.3925 82.0849 60.2618 81.0167 60.2618C79.9486 60.2618 79.0793 59.3925 79.0793 58.3244C79.0793 57.2562 79.9483 56.387 81.0167 56.387Z" fill="#2626BC"/>
<path d="M39.277 131.64C38.902 131.64 38.5273 131.497 38.2411 131.211L35.0131 127.983C34.7383 127.709 34.5842 127.336 34.5842 126.947C34.5842 126.559 34.7386 126.186 35.0131 125.911L38.2411 122.684C38.8132 122.112 39.7405 122.112 40.3126 122.684L43.5406 125.911C43.8154 126.186 43.9695 126.559 43.9695 126.947C43.9695 127.336 43.8151 127.709 43.5406 127.983L40.3129 131.211C40.0267 131.497 39.652 131.64 39.277 131.64ZM38.1207 126.947L39.277 128.103L40.4333 126.947L39.277 125.791L38.1207 126.947Z" fill="#6583FE"/>
<path d="M107.259 128.062C106.884 128.062 106.509 127.919 106.223 127.633L102.995 124.405C102.721 124.13 102.566 123.758 102.566 123.369C102.566 122.98 102.721 122.608 102.995 122.333L106.223 119.105C106.795 118.533 107.723 118.533 108.295 119.105L111.523 122.333C111.798 122.608 111.952 122.98 111.952 123.369C111.952 123.758 111.797 124.13 111.523 124.405L108.295 127.633C108.009 127.919 107.634 128.062 107.259 128.062V128.062ZM106.103 123.369L107.259 124.526L108.416 123.369L107.259 122.213L106.103 123.369Z" fill="#6583FE"/>
<path d="M125.972 136.035C125.597 136.035 125.222 135.892 124.936 135.606L121.708 132.378C121.433 132.103 121.279 131.731 121.279 131.342C121.279 130.953 121.433 130.581 121.708 130.306L124.936 127.078C125.508 126.506 126.435 126.506 127.007 127.078L130.235 130.306C130.51 130.581 130.664 130.953 130.664 131.342C130.664 131.731 130.51 132.103 130.235 132.378L127.007 135.606C126.721 135.891 126.347 136.035 125.972 136.035V136.035ZM124.815 131.342L125.972 132.498L127.128 131.342L125.972 130.185L124.815 131.342Z" fill="#6583FE"/>
<path d="M59.3046 22.127C58.4957 22.127 57.8397 21.471 57.8397 20.6622C57.8397 19.6901 57.0487 18.8991 56.0767 18.8991C55.2678 18.8991 54.6118 18.2431 54.6118 17.4342C54.6118 16.6253 55.2678 15.9694 56.0767 15.9694C57.0487 15.9694 57.8397 15.1784 57.8397 14.2063C57.8397 13.3974 58.4957 12.7415 59.3046 12.7415C60.1135 12.7415 60.7694 13.3974 60.7694 14.2063C60.7694 15.1784 61.5604 15.9694 62.5325 15.9694C63.3414 15.9694 63.9974 16.6253 63.9974 17.4342C63.9974 18.2431 63.3414 18.8991 62.5325 18.8991C61.5604 18.8991 60.7694 19.6901 60.7694 20.6622C60.7694 21.4713 60.1135 22.127 59.3046 22.127Z" fill="#6583FE"/>
</g>
<defs>
<linearGradient id="paint0_linear_1_93" x1="8.7507" y1="32.061" x2="146.045" y2="129.82" gradientUnits="userSpaceOnUse">
<stop stop-color="#D2DEFF" stop-opacity="0"/>
<stop offset="1" stop-color="#B7C5FF"/>
</linearGradient>
<clipPath id="clip0_1_93">
<rect width="150" height="150" fill="white"/>
</clipPath>
</defs>
</svg>
