<svg width="150" height="150" viewBox="0 0 150 150" fill="none" xmlns="http://www.w3.org/2000/svg">
<g clip-path="url(#clip0_1_55)">
<path d="M141.495 42.1064C131.257 31.5747 115.28 30.1219 103.458 37.7476C100.095 39.917 96.0225 40.6445 92.1155 39.777C82.8679 37.7236 73.1944 39.126 64.9553 43.5979C59.4161 46.604 52.6693 46.0814 47.5005 42.4758C44.0692 40.0826 40.0848 38.3675 35.7064 37.5607C19.4648 34.5677 3.6741 45.3399 0.551929 61.5572C-2.64114 78.1418 8.3531 94.0805 24.9258 97.0322C28.9749 97.7535 32.9789 97.6319 36.7582 96.7931C42.8918 95.432 49.3002 97.7078 53.2585 102.587C55.7569 105.667 58.7698 108.415 62.2693 110.699C80.3546 122.5 104.582 117.405 116.383 99.32C116.395 99.3009 116.408 99.2816 116.42 99.2625C118.581 95.9376 121.943 93.5672 125.83 92.7824C131.5 91.6377 136.905 88.8554 141.286 84.4342C152.821 72.7943 152.917 53.8574 141.495 42.1064V42.1064Z" fill="url(#paint0_linear_1_55)"/>
<path opacity="0.1" d="M133.594 30.7792V105.267C133.594 107.692 131.626 109.661 129.2 109.661H20.8013C18.3755 109.661 16.4067 107.692 16.4067 105.267V30.7792C16.4067 28.3535 18.3755 26.3847 20.8013 26.3847H129.2C131.626 26.3847 133.594 28.3535 133.594 30.7792Z" fill="#2626BC"/>
<path d="M91.6148 137.114H58.386L65.0311 110.775H84.9697L91.6148 137.114Z" fill="white"/>
<path d="M133.593 36.9314V111.419C133.593 113.844 131.625 115.813 129.199 115.813H20.8003C18.3745 115.813 16.4058 113.844 16.4058 111.419V36.9314C16.4058 34.5056 18.3745 32.5369 20.8003 32.5369H129.199C131.625 32.5369 133.593 34.5053 133.593 36.9314V36.9314Z" fill="white"/>
<path d="M129.199 32.5369H109.066V115.813H129.199C131.625 115.813 133.593 113.844 133.593 111.419V36.9314C133.593 34.5053 131.625 32.5369 129.199 32.5369V32.5369Z" fill="#6583FE"/>
<path d="M75.0005 58.1698L49.8052 79.449H55.6646C56.15 79.449 56.5435 79.8425 56.5435 80.3279V103.722H93.4575V80.3279C93.4575 79.8425 93.851 79.449 94.3364 79.449H100.196L75.0005 58.1698Z" fill="#6583FE"/>
<path d="M100.195 80.9136C99.8613 80.9136 99.5258 80.7999 99.2507 80.5679L75.0006 60.087L50.7504 80.5679C50.1325 81.0897 49.2079 81.0123 48.6861 80.3939C48.164 79.7757 48.242 78.8514 48.8601 78.3293L74.0554 57.0501C74.6012 56.5896 75.3999 56.5896 75.9457 57.0501L101.141 78.3293C101.759 78.8514 101.837 79.7757 101.315 80.3939C101.025 80.7372 100.612 80.9136 100.195 80.9136Z" fill="#2626BC"/>
<path d="M76.27 103.722H63.9653V83.8983C63.9653 83.0894 64.6213 82.4335 65.4302 82.4335H74.8052C75.6141 82.4335 76.27 83.0894 76.27 83.8983V103.722Z" fill="white"/>
<path d="M83.5731 89.8552C85.6226 89.8552 87.2841 88.1937 87.2841 86.1441C87.2841 84.0946 85.6226 82.4331 83.5731 82.4331C81.5235 82.4331 79.8621 84.0946 79.8621 86.1441C79.8621 88.1937 81.5235 89.8552 83.5731 89.8552Z" fill="white"/>
<path d="M133.594 46.6506V36.9326C133.594 34.5056 131.627 32.538 129.2 32.538H20.8013C18.3743 32.538 16.4067 34.5056 16.4067 36.9326V46.6506H133.594Z" fill="white"/>
<path d="M16.4067 101.051V111.419C16.4067 113.846 18.3743 115.813 20.8013 115.813H129.2C131.627 115.813 133.594 113.846 133.594 111.419V101.051H16.4067Z" fill="white"/>
<path d="M27.5635 41.0804C28.3724 41.0804 29.0283 40.4247 29.0283 39.6155V39.5728C29.0283 38.7636 28.3724 38.1079 27.5635 38.1079C26.7546 38.1079 26.0986 38.7636 26.0986 39.5728V39.6155C26.0986 40.4244 26.7546 41.0804 27.5635 41.0804Z" fill="#2626BC"/>
<path d="M33.2251 41.0804C34.034 41.0804 34.6899 40.4247 34.6899 39.6155V39.5728C34.6899 38.7636 34.034 38.1079 33.2251 38.1079C32.4162 38.1079 31.7603 38.7636 31.7603 39.5728V39.6155C31.7603 40.4244 32.4159 41.0804 33.2251 41.0804Z" fill="#2626BC"/>
<path d="M38.8865 41.0804C39.6954 41.0804 40.3513 40.4247 40.3513 39.6155V39.5728C40.3513 38.7636 39.6954 38.1079 38.8865 38.1079C38.0776 38.1079 37.4216 38.7636 37.4216 39.5728V39.6155C37.4216 40.4244 38.0776 41.0804 38.8865 41.0804Z" fill="#2626BC"/>
<path d="M129.2 31.0728H20.8013C17.5704 31.0728 14.9419 33.7013 14.9419 36.9322V111.419C14.9419 114.65 17.5704 117.278 20.8013 117.278H61.8796L57.2451 135.648H52.7542C51.9453 135.648 51.2894 136.303 51.2894 137.113C51.2894 137.922 51.9453 138.577 52.7542 138.577H97.2468C98.0557 138.577 98.7116 137.922 98.7116 137.113C98.7116 136.303 98.0557 135.648 97.2468 135.648H92.7556L88.1211 117.278H98.2933C99.1022 117.278 99.7581 116.623 99.7581 115.813C99.7581 115.004 99.1022 114.349 98.2933 114.349H20.8013C19.1858 114.349 17.8716 113.034 17.8716 111.419V102.516H132.129V111.419C132.129 113.034 130.815 114.349 129.2 114.349H106.362C105.553 114.349 104.897 115.004 104.897 115.813C104.897 116.623 105.553 117.278 106.362 117.278H129.2C132.431 117.278 135.059 114.65 135.059 111.419V36.9322C135.059 33.7016 132.431 31.0728 129.2 31.0728V31.0728ZM89.7339 135.647H60.2665L64.901 117.278H85.0997L89.7339 135.647ZM17.8716 99.5856V36.9322C17.8716 35.3168 19.1858 34.0025 20.8013 34.0025H129.2C130.815 34.0025 132.129 35.3168 132.129 36.9322V45.1854H24.4751C23.6662 45.1854 23.0103 45.8411 23.0103 46.6503C23.0103 47.4594 23.6662 48.1151 24.4751 48.1151H132.129V99.5859H17.8716V99.5856Z" fill="#2626BC"/>
<path d="M36.4144 64.2381H26.2818C25.4715 64.2381 24.8149 63.5813 24.8149 62.7712C24.8149 61.9612 25.4715 61.3043 26.2818 61.3043H36.4144C37.2248 61.3043 37.8813 61.9612 37.8813 62.7712C37.8813 63.5813 37.2245 64.2381 36.4144 64.2381V64.2381Z" fill="#2626BC"/>
<path d="M125.77 74.6587H115.637C114.827 74.6587 114.17 74.0018 114.17 73.1918C114.17 72.3817 114.827 71.7249 115.637 71.7249H125.77C126.58 71.7249 127.237 72.3817 127.237 73.1918C127.237 74.0021 126.58 74.6587 125.77 74.6587Z" fill="#2626BC"/>
<path d="M125.77 80.916H115.637C114.827 80.916 114.17 80.2591 114.17 79.4491C114.17 78.639 114.827 77.9822 115.637 77.9822H125.77C126.58 77.9822 127.237 78.639 127.237 79.4491C127.237 80.2591 126.58 80.916 125.77 80.916Z" fill="#2626BC"/>
<path d="M125.77 87.1726H115.637C114.827 87.1726 114.17 86.5157 114.17 85.7057C114.17 84.8956 114.827 84.2388 115.637 84.2388H125.77C126.58 84.2388 127.237 84.8956 127.237 85.7057C127.237 86.5157 126.58 87.1726 125.77 87.1726Z" fill="#2626BC"/>
<path d="M48.7191 56.3912H26.2818C25.4715 56.3912 24.8149 55.7344 24.8149 54.9243C24.8149 54.1142 25.4715 53.4574 26.2818 53.4574H48.7191C49.5295 53.4574 50.186 54.1142 50.186 54.9243C50.186 55.7344 49.5292 56.3912 48.7191 56.3912Z" fill="#2626BC"/>
<path d="M36.4144 69.4485H26.2818C25.4715 69.4485 24.8149 68.7917 24.8149 67.9817C24.8149 67.1716 25.4715 66.5148 26.2818 66.5148H36.4144C37.2248 66.5148 37.8813 67.1716 37.8813 67.9817C37.8813 68.7917 37.2245 69.4485 36.4144 69.4485V69.4485Z" fill="#2626BC"/>
<path d="M36.4144 74.6587H26.2818C25.4715 74.6587 24.8149 74.0018 24.8149 73.1918C24.8149 72.3817 25.4715 71.7249 26.2818 71.7249H36.4144C37.2248 71.7249 37.8813 72.3817 37.8813 73.1918C37.8813 74.0021 37.2245 74.6587 36.4144 74.6587V74.6587Z" fill="#2626BC"/>
<path d="M115.774 56.3385C116.68 56.3385 117.415 55.6036 117.415 54.697C117.415 53.7904 116.68 53.0555 115.774 53.0555C114.867 53.0555 114.132 53.7904 114.132 54.697C114.132 55.6036 114.867 56.3385 115.774 56.3385Z" fill="#2626BC"/>
<path d="M115.774 62.1829C116.68 62.1829 117.415 61.448 117.415 60.5414C117.415 59.6348 116.68 58.8999 115.774 58.8999C114.867 58.8999 114.132 59.6348 114.132 60.5414C114.132 61.448 114.867 62.1829 115.774 62.1829Z" fill="#2626BC"/>
<path d="M115.774 68.0276C116.68 68.0276 117.415 67.2927 117.415 66.3861C117.415 65.4796 116.68 64.7446 115.774 64.7446C114.867 64.7446 114.132 65.4796 114.132 66.3861C114.132 67.2927 114.867 68.0276 115.774 68.0276Z" fill="#2626BC"/>
<path d="M34.69 85.6974C34.69 83.0138 32.5065 80.8303 29.8229 80.8303C27.1393 80.8303 24.9558 83.0138 24.9558 85.6974C24.9558 87.021 25.4884 88.2213 26.3489 89.0996C25.4887 89.978 24.9558 91.1782 24.9558 92.5019C24.9558 93.3111 25.6118 93.9667 26.4207 93.9667C27.2295 93.9667 27.8855 93.3111 27.8855 92.5019C27.8855 91.4337 28.7547 90.5645 29.8229 90.5645C30.8911 90.5645 31.7603 91.4337 31.7603 92.5019C31.7603 93.3111 32.4163 93.9667 33.2251 93.9667C34.034 93.9667 34.69 93.3111 34.69 92.5019C34.69 91.1782 34.1574 89.978 33.2969 89.0996C34.1574 88.2213 34.69 87.0213 34.69 85.6974ZM29.8226 83.76C30.8908 83.76 31.76 84.6292 31.76 85.6974C31.76 86.7656 30.8908 87.6348 29.8226 87.6348C28.7544 87.6348 27.8852 86.7656 27.8852 85.6974C27.8852 84.6292 28.7544 83.76 29.8226 83.76Z" fill="#2626BC"/>
<path d="M117.415 20.8069C116.606 20.8069 115.95 20.1513 115.95 19.3421C115.95 18.3703 115.16 17.5796 114.188 17.5796C113.379 17.5796 112.723 16.9239 112.723 16.1147C112.723 15.3056 113.379 14.6499 114.188 14.6499C115.16 14.6499 115.95 13.8595 115.95 12.8874C115.95 12.0782 116.606 11.4225 117.415 11.4225C118.224 11.4225 118.88 12.0782 118.88 12.8874C118.88 13.8592 119.671 14.6499 120.643 14.6499C121.452 14.6499 122.108 15.3056 122.108 16.1147C122.108 16.9239 121.452 17.5796 120.643 17.5796C119.671 17.5796 118.88 18.37 118.88 19.3421C118.88 20.1516 118.225 20.8069 117.415 20.8069Z" fill="#6583FE"/>
<path d="M48.4703 129.207C47.6614 129.207 47.0054 128.551 47.0054 127.742C47.0054 126.771 46.2147 125.98 45.2429 125.98C44.434 125.98 43.7781 125.324 43.7781 124.515C43.7781 123.706 44.434 123.05 45.2429 123.05C46.2147 123.05 47.0054 122.26 47.0054 121.288C47.0054 120.478 47.6614 119.823 48.4703 119.823C49.2792 119.823 49.9351 120.478 49.9351 121.288C49.9351 122.259 50.7258 123.05 51.6976 123.05C52.5065 123.05 53.1625 123.706 53.1625 124.515C53.1625 125.324 52.5065 125.98 51.6976 125.98C50.7258 125.98 49.9351 126.77 49.9351 127.742C49.9351 128.551 49.2792 129.207 48.4703 129.207Z" fill="#6583FE"/>
<path d="M31.3482 133.508C30.5393 133.508 29.8833 132.852 29.8833 132.043C29.8833 131.071 29.0926 130.28 28.1208 130.28C27.312 130.28 26.656 129.625 26.656 128.815C26.656 128.006 27.312 127.351 28.1208 127.351C29.0926 127.351 29.8833 126.56 29.8833 125.588C29.8833 124.779 30.5393 124.123 31.3482 124.123C32.1571 124.123 32.813 124.779 32.813 125.588C32.813 126.56 33.6038 127.351 34.5755 127.351C35.3844 127.351 36.0404 128.006 36.0404 128.815C36.0404 129.625 35.3844 130.28 34.5755 130.28C33.6038 130.28 32.813 131.071 32.813 132.043C32.813 132.851 32.1571 133.508 31.3482 133.508Z" fill="#6583FE"/>
<path d="M101.45 24.6079C101.075 24.6079 100.701 24.4649 100.414 24.1787L97.1935 20.9578C96.6214 20.3859 96.6214 19.4583 97.1935 18.8865L100.414 15.6656C100.987 15.0934 101.914 15.0934 102.486 15.6656L105.707 18.8865C106.279 19.4583 106.279 20.3859 105.707 20.9578L102.486 24.179C102.2 24.4649 101.825 24.6079 101.45 24.6079V24.6079ZM100.301 19.9218L101.45 21.0711L102.6 19.9218L101.45 18.7725L100.301 19.9218Z" fill="#6583FE"/>
</g>
<defs>
<linearGradient id="paint0_linear_1_55" x1="-4.23928" y1="80.9373" x2="156.29" y2="70.7854" gradientUnits="userSpaceOnUse">
<stop stop-color="#D2DEFF" stop-opacity="0"/>
<stop offset="1" stop-color="#B7C5FF"/>
</linearGradient>
<clipPath id="clip0_1_55">
<rect width="150" height="150" fill="white"/>
</clipPath>
</defs>
</svg>
