<svg width="150" height="150" viewBox="0 0 150 150" fill="none" xmlns="http://www.w3.org/2000/svg">
<g clip-path="url(#clip0_1_855)">
<path d="M90.8422 26.1778C84.5639 10.7474 69.3761 -0.108277 51.6646 0.0010007C29.0697 0.140161 10.492 18.3655 9.94383 40.9539C9.67342 52.0985 13.746 62.2882 20.5886 69.9529C26.0433 76.063 28.7808 84.1106 28.5049 92.297C28.4682 93.3851 28.4627 94.4811 28.4896 95.5841C29.2115 125.291 54.5893 150.018 84.3052 150C115.106 149.982 140.069 125.007 140.069 94.2022C140.069 71.6219 126.656 52.1764 107.363 43.3946C99.8431 39.9719 93.9558 33.8301 90.8422 26.1778Z" fill="url(#paint0_linear_1_855)"/>
<path opacity="0.1" d="M137.256 38.9754C137.256 26.1003 126.819 15.6627 113.943 15.6627C105.136 15.6627 97.4722 20.5476 93.5065 27.7547H17.1366C14.712 27.7547 12.7441 29.7225 12.7441 32.1471V106.599C12.7441 109.024 14.712 110.991 17.1366 110.991H125.483C127.908 110.991 129.876 109.024 129.876 106.599V55.986C134.416 51.7324 137.256 45.687 137.256 38.9754Z" fill="#2626BC"/>
<path d="M87.9161 138.432H54.7034L61.3453 112.105H81.2745L87.9161 138.432Z" fill="white"/>
<path d="M129.876 38.2969V112.749C129.876 115.173 127.908 117.141 125.484 117.141H17.1366C14.712 117.141 12.7441 115.173 12.7441 112.749V38.2969C12.7441 35.8723 14.712 33.9044 17.1366 33.9044H125.483C127.908 33.9044 129.876 35.8723 129.876 38.2969Z" fill="white"/>
<path d="M40.6884 75.523H22.7001C22.215 75.523 21.8215 75.1298 21.8215 74.6443V48.0109H41.5667V74.6443C41.5667 75.1295 41.1736 75.523 40.6884 75.523Z" fill="#6583FE"/>
<path d="M121.621 48.0109V74.6429C121.621 75.1289 121.226 75.5215 120.743 75.5215H50.0393C49.5532 75.5215 49.1606 75.1292 49.1606 74.6429V48.0109H121.621Z" fill="#6583FE"/>
<path d="M36.1553 95.7018H22.7001C22.215 95.7018 21.8215 95.3083 21.8215 94.8232V81.368C21.8215 80.8828 22.215 80.4894 22.7001 80.4894H36.1553C36.6405 80.4894 37.0339 80.8828 37.0339 81.368V94.8232C37.0336 95.3083 36.6405 95.7018 36.1553 95.7018Z" fill="#6583FE"/>
<path d="M58.1534 95.7018H44.6982C44.213 95.7018 43.8196 95.3083 43.8196 94.8232V81.368C43.8196 80.8828 44.2127 80.4894 44.6982 80.4894H58.1534C58.6385 80.4894 59.032 80.8828 59.032 81.368V94.8232C59.032 95.3083 58.6385 95.7018 58.1534 95.7018Z" fill="#6583FE"/>
<path d="M89.752 95.7018H66.6965C66.2113 95.7018 65.8179 95.3083 65.8179 94.8232V81.368C65.8179 80.8828 66.2113 80.4894 66.6965 80.4894H89.752C90.2371 80.4894 90.6306 80.8828 90.6306 81.368V94.8232C90.6306 95.3083 90.2371 95.7018 89.752 95.7018Z" fill="#6583FE"/>
<path d="M120.742 95.7018H97.6865C97.2013 95.7018 96.8079 95.3083 96.8079 94.8232V81.368C96.8079 80.8828 97.2013 80.4894 97.6865 80.4894H120.742C121.227 80.4894 121.621 80.8828 121.621 81.368V94.8232C121.621 95.3083 121.227 95.7018 120.742 95.7018Z" fill="#6583FE"/>
<path d="M129.876 48.0108V38.2971C129.876 35.8714 127.909 33.9047 125.483 33.9047H17.1361C14.7104 33.9047 12.7437 35.8714 12.7437 38.2971V48.0108H129.876Z" fill="white"/>
<path d="M12.7437 102.385V112.748C12.7437 115.174 14.7104 117.141 17.1361 117.141H125.483C127.909 117.141 129.875 115.174 129.875 112.748V102.385H12.7437Z" fill="white"/>
<path d="M130.408 61.6142C139.511 52.5114 139.511 37.7528 130.408 28.65C121.305 19.5472 106.547 19.5472 97.444 28.65C88.3412 37.7528 88.3412 52.5114 97.444 61.6142C106.547 70.717 121.305 70.717 130.408 61.6142Z" fill="white"/>
<path d="M22.4307 40.9365V40.9793C22.4307 41.7885 23.0866 42.4441 23.8955 42.4441C24.7044 42.4441 25.3604 41.7885 25.3604 40.9793V40.9365C25.3604 40.1273 24.7044 39.4717 23.8955 39.4717C23.0866 39.4717 22.4307 40.1276 22.4307 40.9365Z" fill="#2626BC"/>
<path d="M28.0894 40.9365V40.9793C28.0894 41.7885 28.7453 42.4441 29.5542 42.4441C30.3631 42.4441 31.019 41.7885 31.019 40.9793V40.9365C31.019 40.1273 30.3631 39.4717 29.5542 39.4717C28.7453 39.4717 28.0894 40.1276 28.0894 40.9365Z" fill="#2626BC"/>
<path d="M33.7483 40.9365V40.9793C33.7483 41.7885 34.4042 42.4441 35.2131 42.4441C36.022 42.4441 36.678 41.7885 36.678 40.9793V40.9365C36.678 40.1273 36.022 39.4717 35.2131 39.4717C34.4042 39.4717 33.7483 40.1276 33.7483 40.9365Z" fill="#2626BC"/>
<path d="M113.943 20.3472C100.281 20.3472 89.1654 31.4622 89.1654 45.1245C89.1654 45.6017 89.1821 46.0752 89.2091 46.546H14.2085V38.2974C14.2085 36.6829 15.5219 35.3698 17.1361 35.3698H85.3905C86.1994 35.3698 86.8554 34.7141 86.8554 33.9049C86.8554 33.0958 86.1994 32.4401 85.3905 32.4401H17.1361C13.9064 32.4401 11.2788 35.0677 11.2788 38.2974V112.748C11.2788 115.978 13.9064 118.606 17.1361 118.606H58.1939L53.5621 136.965H49.0738C48.2649 136.965 47.609 137.621 47.609 138.43C47.609 139.239 48.2649 139.895 49.0738 139.895H93.5453C94.3542 139.895 95.0102 139.239 95.0102 138.43C95.0102 137.621 94.3542 136.965 93.5453 136.965H89.0565L84.4246 118.606H125.483C128.712 118.606 131.34 115.978 131.34 112.748V62.1548C131.34 60.919 129.796 60.2112 128.869 61.079C124.808 64.8794 119.507 66.9723 113.943 66.9723C101.896 66.9723 92.0948 57.1714 92.0948 45.1245C92.0948 33.0776 101.896 23.2769 113.943 23.2769C125.99 23.2769 135.791 33.0776 135.791 45.1245C135.791 48.7822 134.869 52.4007 133.127 55.5884C132.739 56.2983 133 57.1883 133.71 57.5765C134.42 57.9644 135.31 57.7034 135.698 56.9938C137.675 53.3762 138.721 49.2723 138.721 45.1245C138.721 31.4625 127.606 20.3472 113.943 20.3472ZM86.0354 136.965H56.5838L61.2156 118.606H81.4035L86.0354 136.965ZM125.483 115.676H17.1364C15.5222 115.676 14.2088 114.363 14.2088 112.748V103.85H128.411V112.748C128.411 114.362 127.098 115.676 125.483 115.676ZM113.943 69.9023C119.184 69.9023 124.217 68.2602 128.411 65.2356V100.92H14.2088V49.4756H89.556C91.6193 61.0693 101.766 69.9023 113.943 69.9023Z" fill="#2626BC"/>
<path d="M130.779 49.1398C132.974 39.851 127.224 30.5411 117.936 28.3454C108.647 26.1497 99.3369 31.8997 97.1412 41.1885C94.9455 50.4772 100.696 59.7872 109.984 61.9829C119.273 64.1785 128.583 58.4285 130.779 49.1398Z" fill="#6583FE"/>
<path d="M107.977 52.5554C107.602 52.5554 107.227 52.4124 106.941 52.1265C106.369 51.5549 106.369 50.6277 106.941 50.0561L118.874 38.1232C119.446 37.5513 120.373 37.5513 120.945 38.1232C121.517 38.6948 121.517 39.622 120.945 40.1936L109.012 52.1265C108.726 52.4124 108.351 52.5554 107.977 52.5554Z" fill="#2626BC"/>
<path d="M108.489 43.8627C106.178 43.8627 104.297 41.9821 104.297 39.6703C104.297 37.3588 106.178 35.4782 108.489 35.4782C110.801 35.4782 112.681 37.3588 112.681 39.6703C112.681 41.9821 110.801 43.8627 108.489 43.8627ZM108.489 38.4067C107.792 38.4067 107.225 38.9736 107.225 39.6703C107.225 40.367 107.792 40.9342 108.489 40.9342C109.186 40.9342 109.753 40.367 109.753 39.6703C109.753 38.9736 109.186 38.4067 108.489 38.4067Z" fill="#2626BC"/>
<path d="M119.397 54.7708C117.086 54.7708 115.205 52.8902 115.205 50.5784C115.205 48.2669 117.086 46.3863 119.397 46.3863C121.709 46.3863 123.589 48.2669 123.589 50.5784C123.589 52.8905 121.709 54.7708 119.397 54.7708ZM119.397 49.3151C118.7 49.3151 118.134 49.882 118.134 50.5787C118.134 51.2754 118.7 51.8425 119.397 51.8425C120.094 51.8425 120.661 51.2754 120.661 50.5787C120.661 49.882 120.094 49.3151 119.397 49.3151Z" fill="#2626BC"/>
<path d="M65.3771 71.4196C66.2782 71.4196 67.0087 70.6812 67.0087 69.7705C67.0087 68.8597 66.2782 68.1213 65.3771 68.1213C64.4761 68.1213 63.7456 68.8597 63.7456 69.7705C63.7456 70.6812 64.4761 71.4196 65.3771 71.4196Z" fill="#2626BC"/>
<path d="M60.4414 71.4196C61.3424 71.4196 62.0729 70.6812 62.0729 69.7705C62.0729 68.8597 61.3424 68.1213 60.4414 68.1213C59.5403 68.1213 58.8098 68.8597 58.8098 69.7705C58.8098 70.6812 59.5403 71.4196 60.4414 71.4196Z" fill="#2626BC"/>
<path d="M55.5058 71.4196C56.4069 71.4196 57.1374 70.6812 57.1374 69.7705C57.1374 68.8597 56.4069 68.1213 55.5058 68.1213C54.6047 68.1213 53.8743 68.8597 53.8743 69.7705C53.8743 70.6812 54.6047 71.4196 55.5058 71.4196Z" fill="#2626BC"/>
<path d="M76.6276 86.6206H72.241C71.4124 86.6206 70.741 85.9488 70.741 85.1206C70.741 84.2924 71.4124 83.6206 72.241 83.6206H76.6276C77.4561 83.6206 78.1276 84.2924 78.1276 85.1206C78.1276 85.9488 77.4561 86.6206 76.6276 86.6206Z" fill="#2626BC"/>
<path d="M84.2077 86.6206H82.2817C81.4532 86.6206 80.7817 85.9488 80.7817 85.1206C80.7817 84.2924 81.4532 83.6206 82.2817 83.6206H84.2077C85.0362 83.6206 85.7077 84.2924 85.7077 85.1206C85.7077 85.9488 85.0362 86.6206 84.2077 86.6206Z" fill="#2626BC"/>
<path d="M84.2076 92.5708H72.2407C71.4122 92.5708 70.7407 91.899 70.7407 91.0708C70.7407 90.2426 71.4122 89.5708 72.2407 89.5708H84.2076C85.0361 89.5708 85.7076 90.2426 85.7076 91.0708C85.7076 91.899 85.0361 92.5708 84.2076 92.5708Z" fill="#2626BC"/>
<path d="M107.618 86.6206H103.231C102.402 86.6206 101.731 85.9488 101.731 85.1206C101.731 84.2924 102.402 83.6206 103.231 83.6206H107.618C108.446 83.6206 109.118 84.2924 109.118 85.1206C109.118 85.9488 108.446 86.6206 107.618 86.6206Z" fill="#2626BC"/>
<path d="M115.198 86.6206H113.272C112.443 86.6206 111.772 85.9488 111.772 85.1206C111.772 84.2924 112.443 83.6206 113.272 83.6206H115.198C116.026 83.6206 116.698 84.2924 116.698 85.1206C116.698 85.9488 116.026 86.6206 115.198 86.6206Z" fill="#2626BC"/>
<path d="M115.198 92.5708H103.231C102.402 92.5708 101.731 91.899 101.731 91.0708C101.731 90.2426 102.402 89.5708 103.231 89.5708H115.198C116.026 89.5708 116.698 90.2426 116.698 91.0708C116.698 91.899 116.026 92.5708 115.198 92.5708Z" fill="#2626BC"/>
<path d="M92.4934 19.4763C92.1049 19.4763 91.7322 19.3219 91.4574 19.0471L88.2363 15.8256C87.6641 15.2537 87.6641 14.3262 88.2363 13.7543L91.4574 10.5331C92.0296 9.96096 92.9569 9.96096 93.529 10.5331L96.7505 13.7543C97.0253 14.0291 97.1794 14.4015 97.1794 14.79C97.1794 15.1784 97.025 15.5511 96.7505 15.8256L93.529 19.0471C93.2548 19.3216 92.8822 19.4763 92.4934 19.4763ZM91.3438 14.7897L92.4934 15.9396L93.643 14.7897L92.4934 13.6401L91.3438 14.7897Z" fill="#6583FE"/>
<path d="M99.8787 130.742C99.5037 130.742 99.129 130.599 98.8428 130.313L95.6213 127.092C95.3465 126.817 95.1924 126.444 95.1924 126.056C95.1924 125.667 95.3468 125.295 95.6213 125.02L98.8428 121.799C99.4152 121.227 100.342 121.227 100.914 121.799L104.136 125.02C104.708 125.592 104.708 126.52 104.136 127.092L100.914 130.313C100.628 130.599 100.254 130.742 99.8787 130.742ZM98.7291 126.056L99.8787 127.206L101.028 126.056L99.8787 124.906L98.7291 126.056Z" fill="#6583FE"/>
<path d="M112.681 138.02C111.872 138.02 111.216 137.364 111.216 136.555C111.216 135.583 110.426 134.793 109.454 134.793C108.645 134.793 107.989 134.137 107.989 133.328C107.989 132.519 108.645 131.863 109.454 131.863C110.426 131.863 111.216 131.072 111.216 130.1C111.216 129.291 111.872 128.635 112.681 128.635C113.49 128.635 114.146 129.291 114.146 130.1C114.146 131.072 114.937 131.863 115.909 131.863C116.717 131.863 117.373 132.519 117.373 133.328C117.373 134.137 116.717 134.793 115.909 134.793C114.937 134.793 114.146 135.583 114.146 136.555C114.146 137.364 113.49 138.02 112.681 138.02Z" fill="#6583FE"/>
<path d="M52.7542 23.5819C51.9453 23.5819 51.2894 22.9262 51.2894 22.117C51.2894 21.1453 50.4986 20.3545 49.5269 20.3545C48.718 20.3545 48.062 19.6989 48.062 18.8897C48.062 18.0805 48.718 17.4249 49.5269 17.4249C50.4986 17.4249 51.2894 16.6344 51.2894 15.6624C51.2894 14.8532 51.9453 14.1975 52.7542 14.1975C53.5631 14.1975 54.219 14.8532 54.219 15.6624C54.219 16.6341 55.0098 17.4249 55.9815 17.4249C56.7904 17.4249 57.4464 18.0805 57.4464 18.8897C57.4464 19.6989 56.7904 20.3545 55.9815 20.3545C55.0098 20.3545 54.219 21.145 54.219 22.117C54.219 22.9262 53.5631 23.5819 52.7542 23.5819Z" fill="#6583FE"/>
</g>
<defs>
<linearGradient id="paint0_linear_1_855" x1="13.637" y1="10.4316" x2="124.674" y2="141.773" gradientUnits="userSpaceOnUse">
<stop stop-color="#D2DEFF" stop-opacity="0"/>
<stop offset="1" stop-color="#B7C5FF"/>
</linearGradient>
<clipPath id="clip0_1_855">
<rect width="150" height="150" fill="white"/>
</clipPath>
</defs>
</svg>
