<svg width="150" height="150" viewBox="0 0 150 150" fill="none" xmlns="http://www.w3.org/2000/svg">
<g clip-path="url(#clip0_1_305)">
<path d="M90.8422 26.1778C84.5639 10.7475 69.3761 -0.108216 51.6646 0.00106173C29.0697 0.140222 10.492 18.3655 9.94383 40.954C9.67342 52.0985 13.746 62.2883 20.5886 69.9529C26.0433 76.0631 28.7808 84.1106 28.5049 92.2971C28.4682 93.3852 28.4627 94.4812 28.4896 95.5842C29.2115 125.291 54.5893 150.018 84.3052 150C115.106 149.982 140.069 125.007 140.069 94.2022C140.069 71.622 126.656 52.1765 107.363 43.3947C99.843 39.972 93.9558 33.8302 90.8422 26.1778Z" fill="url(#paint0_linear_1_305)"/>
<path opacity="0.1" d="M133.594 25.874V100.361C133.594 102.787 131.625 104.756 129.199 104.756H20.8008C18.375 104.756 16.4062 102.787 16.4062 100.361V25.874C16.4062 23.4482 18.375 21.4795 20.8008 21.4795H129.199C131.625 21.4795 133.594 23.4482 133.594 25.874Z" fill="#2626BC"/>
<path d="M93.5557 19.5692C93.1673 19.5692 92.7946 19.4148 92.5201 19.1403L89.2922 15.9124C88.72 15.3402 88.72 14.4127 89.2922 13.8408L92.5201 10.6129C92.7949 10.3381 93.1673 10.184 93.5557 10.184C93.9442 10.184 94.3169 10.3384 94.5914 10.6129L97.8196 13.8408C98.0944 14.1156 98.2488 14.488 98.2488 14.8767C98.2488 15.2655 98.0947 15.6379 97.8196 15.9127L94.5914 19.1406C94.3169 19.4148 93.9442 19.5692 93.5557 19.5692ZM92.3997 14.8764L93.5557 16.0328L94.7121 14.8764L93.5557 13.7201L92.3997 14.8764Z" fill="#6583FE"/>
<path d="M111.929 127.875C111.54 127.875 111.167 127.721 110.893 127.446L107.665 124.218C107.093 123.646 107.093 122.718 107.665 122.147L110.893 118.919C111.464 118.347 112.392 118.347 112.964 118.919L116.192 122.147C116.467 122.421 116.622 122.794 116.622 123.183C116.622 123.571 116.468 123.944 116.192 124.218L112.964 127.446C112.689 127.721 112.317 127.875 111.929 127.875ZM110.772 123.182L111.929 124.339L113.085 123.182L111.929 122.026L110.772 123.182Z" fill="#6583FE"/>
<path d="M31.2551 139.816C30.4459 139.816 29.7902 139.16 29.7902 138.351C29.7902 137.379 28.9992 136.588 28.0269 136.588C27.2177 136.588 26.562 135.932 26.562 135.124C26.562 134.315 27.2177 133.659 28.0269 133.659C28.9989 133.659 29.7902 132.868 29.7902 131.896C29.7902 131.087 30.4459 130.431 31.2551 130.431C32.0643 130.431 32.7199 131.087 32.7199 131.896C32.7199 132.868 33.5106 133.659 34.483 133.659C35.2922 133.659 35.9479 134.315 35.9479 135.124C35.9479 135.932 35.2922 136.588 34.483 136.588C33.5109 136.588 32.7199 137.379 32.7199 138.351C32.7199 139.16 32.064 139.816 31.2551 139.816Z" fill="#6583FE"/>
<path d="M43.9499 126.223C43.1407 126.223 42.485 125.567 42.485 124.758C42.485 123.786 41.6943 122.995 40.7219 122.995C39.9127 122.995 39.2571 122.339 39.2571 121.53C39.2571 120.722 39.9127 120.066 40.7219 120.066C41.694 120.066 42.485 119.275 42.485 118.302C42.485 117.494 43.1407 116.838 43.9499 116.838C44.759 116.838 45.4147 117.494 45.4147 118.302C45.4147 119.275 46.2057 120.066 47.1781 120.066C47.9873 120.066 48.6429 120.722 48.6429 121.53C48.6429 122.339 47.9873 122.995 47.1781 122.995C46.206 122.995 45.4147 123.786 45.4147 124.758C45.4147 125.568 44.7587 126.223 43.9499 126.223Z" fill="#6583FE"/>
<path d="M91.6143 132.209H58.3855L62.7162 115.04L65.0306 105.87H84.9692L87.2836 115.04L91.6143 132.209Z" fill="white"/>
<path d="M91.6152 133.672H58.3843C57.9326 133.672 57.5063 133.464 57.2289 133.108C56.9514 132.751 56.8536 132.287 56.9643 131.849L62.1944 111.123C62.3925 110.339 63.1887 109.864 63.973 110.061C64.7573 110.259 65.2328 111.056 65.0347 111.84L60.2649 130.742H89.7352L84.9229 111.671C84.7249 110.887 85.2004 110.09 85.9846 109.892C86.7701 109.695 87.5655 110.17 87.7633 110.955L93.0355 131.849C93.1463 132.287 93.0484 132.751 92.771 133.108C92.4935 133.464 92.067 133.672 91.6152 133.672Z" fill="#2626BC"/>
<path d="M133.594 32.0264V106.514C133.594 108.939 131.625 110.908 129.199 110.908H20.8008C18.375 110.908 16.4062 108.939 16.4062 106.514V32.0264C16.4062 29.6006 18.375 27.6318 20.8008 27.6318H129.199C131.625 27.6318 133.594 29.6006 133.594 32.0264Z" fill="white"/>
<path d="M129.199 27.6318H104.004V110.908H129.199C131.625 110.908 133.594 108.939 133.594 106.514V32.0264C133.594 29.6006 131.625 27.6318 129.199 27.6318Z" fill="white"/>
<path d="M128.174 55.5078L126.067 48.1104C125.889 47.4805 125.311 47.0439 124.658 47.0439H117.51C116.856 47.0439 116.279 47.4805 116.101 48.1104L113.994 55.5078C111.041 56.2314 108.261 57.3945 105.729 58.9297L99.0088 55.1885C98.4375 54.8691 97.7226 54.9688 97.2598 55.4316L92.2061 60.4883C91.7432 60.9512 91.6436 61.6631 91.96 62.2373L95.7041 68.958C94.1689 71.4893 93.0029 74.2695 92.2793 77.2197L84.8818 79.3291C84.252 79.5078 83.8184 80.082 83.8184 80.7383V87.8867C83.8184 88.54 84.252 89.1143 84.8818 89.2959L92.2793 91.4023C92.7753 93.4268 93.4819 95.3688 94.3714 97.2061H115.716C110.668 95.1022 107.118 90.1238 107.118 84.3125C107.118 76.5986 113.37 70.3467 121.084 70.3467C126.565 70.3467 131.306 73.5019 133.594 78.0957V57.4121C131.871 56.6094 130.058 55.9707 128.174 55.5078Z" fill="white"/>
<path d="M123.04 98.671H93.4529L93.0527 97.8445C92.2333 96.1517 91.5686 94.3851 91.0726 92.5819L84.4808 90.7048C83.2263 90.343 82.3535 89.1846 82.3535 87.8868V80.7383C82.3535 79.4343 83.2289 78.2754 84.4819 77.92L91.0726 76.0406C91.7546 73.5597 92.7419 71.1776 94.0166 68.9387L90.6803 62.9505C90.0498 61.8064 90.2525 60.3706 91.1698 59.4527L96.2235 54.3964C97.1461 53.4735 98.5852 53.2737 99.7233 53.91L105.71 57.2426C107.946 55.9702 110.329 54.9835 112.815 54.3011L114.691 47.7096C115.047 46.4557 116.206 45.5795 117.509 45.5795H124.658C125.961 45.5795 127.12 46.456 127.476 47.7108L129.353 54.3014C131.027 54.7617 132.658 55.3599 134.212 56.0844L135.058 56.4788V84.3225L132.282 78.7488C130.151 74.4697 125.86 71.8116 121.084 71.8116C114.191 71.8116 108.583 77.4196 108.583 84.3126C108.583 89.3751 111.604 93.9055 116.28 95.8541L123.04 98.671ZM95.306 95.7413H110.708C107.541 92.8716 105.653 88.7584 105.653 84.3126C105.653 75.8042 112.575 68.8819 121.084 68.8819C125.336 68.8819 129.276 70.5882 132.129 73.5208V58.3629C130.745 57.7737 129.301 57.2932 127.824 56.9302L126.998 56.7272L124.659 48.5112L117.51 48.5086L115.17 56.7278L114.343 56.9305C111.568 57.6105 108.926 58.7045 106.489 60.1822L105.761 60.6237L98.2969 56.4682L93.2426 61.5237L97.3989 68.9891L96.9571 69.7175C95.4765 72.1588 94.3813 74.8002 93.7022 77.5684L93.4995 78.3946L85.2838 80.7375L85.2835 87.8865L93.4995 90.2264L93.7022 91.0535C94.0937 92.6528 94.6321 94.2255 95.306 95.7413Z" fill="#2626BC"/>
<path d="M133.594 41.7454V32.0273C133.594 29.6004 131.626 27.6328 129.199 27.6328H20.8008C18.3738 27.6328 16.4062 29.6004 16.4062 32.0273V41.7454H133.594Z" fill="white"/>
<path d="M133.594 43.2103H16.4062C15.5971 43.2103 14.9414 42.5544 14.9414 41.7455C14.9414 40.9366 15.5971 40.2806 16.4062 40.2806H133.594C134.403 40.2806 135.059 40.9366 135.059 41.7455C135.059 42.5544 134.403 43.2103 133.594 43.2103Z" fill="#2626BC"/>
<path d="M16.406 96.146V106.514C16.406 108.941 18.3736 110.909 20.8005 110.909H129.199C131.626 110.909 133.593 108.941 133.593 106.514V96.146H16.406Z" fill="white"/>
<path d="M133.432 97.6108H25.769C24.9599 97.6108 24.3042 96.9549 24.3042 96.146C24.3042 95.3371 24.9599 94.6812 25.769 94.6812H133.432C134.241 94.6812 134.896 95.3371 134.896 96.146C134.897 96.9549 134.241 97.6108 133.432 97.6108Z" fill="#2626BC"/>
<path d="M97.2462 133.672H52.7537C51.9445 133.672 51.2888 133.016 51.2888 132.207C51.2888 131.399 51.9445 130.743 52.7537 130.743H97.246C98.0551 130.743 98.7108 131.399 98.7108 132.207C98.7108 133.016 98.0551 133.672 97.2462 133.672Z" fill="#2626BC"/>
<path d="M27.563 36.1756C26.7538 36.1756 26.0981 35.5196 26.0981 34.7107V34.668C26.0981 33.8591 26.7538 33.2031 27.563 33.2031C28.3722 33.2031 29.0278 33.8591 29.0278 34.668V34.7107C29.0278 35.5196 28.3722 36.1756 27.563 36.1756Z" fill="#2626BC"/>
<path d="M33.2246 36.1756C32.4154 36.1756 31.7598 35.5196 31.7598 34.7107V34.668C31.7598 33.8591 32.4154 33.2031 33.2246 33.2031C34.0338 33.2031 34.6895 33.8591 34.6895 34.668V34.7107C34.6895 35.5196 34.0338 36.1756 33.2246 36.1756Z" fill="#2626BC"/>
<path d="M38.886 36.1756C38.0768 36.1756 37.4211 35.5196 37.4211 34.7107V34.668C37.4211 33.8591 38.0768 33.2031 38.886 33.2031C39.6952 33.2031 40.3508 33.8591 40.3508 34.668V34.7107C40.3508 35.5196 39.6952 36.1756 38.886 36.1756Z" fill="#2626BC"/>
<path d="M129.199 112.373H20.8008C17.5699 112.373 14.9414 109.745 14.9414 106.514V32.0273C14.9414 28.7965 17.5699 26.168 20.8008 26.168H129.199C132.43 26.168 135.059 28.7965 135.059 32.0273V41.7454C135.059 42.5543 134.403 43.2103 133.594 43.2103C132.785 43.2103 132.129 42.5543 132.129 41.7454V32.0273C132.129 30.4119 130.815 29.0977 129.199 29.0977H20.8008C19.1854 29.0977 17.8711 30.4119 17.8711 32.0273V106.514C17.8711 108.129 19.1854 109.444 20.8008 109.444H129.199C130.815 109.444 132.129 108.129 132.129 106.514V49.8141C132.129 49.0052 132.785 48.3492 133.594 48.3492C134.403 48.3492 135.059 49.0052 135.059 49.8141V106.514C135.059 109.745 132.43 112.373 129.199 112.373Z" fill="#2626BC"/>
<path d="M76.0867 80.3528H27.2365C26.4261 80.3528 25.7693 79.696 25.7693 78.8857C25.7693 78.0753 26.4261 77.4185 27.2365 77.4185H76.0867C76.897 77.4185 77.5539 78.0753 77.5539 78.8857C77.5539 79.696 76.897 80.3528 76.0867 80.3528Z" fill="#2626BC"/>
<path d="M58.5085 68.0503H27.2365C26.4261 68.0503 25.7693 67.3935 25.7693 66.5832C25.7693 65.7728 26.4261 65.116 27.2365 65.116H58.5085C59.3189 65.116 59.9757 65.7728 59.9757 66.5832C59.9757 67.3935 59.3189 68.0503 58.5085 68.0503Z" fill="#2626BC"/>
<path d="M76.0867 86.1729H27.2365C26.4261 86.1729 25.7693 85.5161 25.7693 84.7057C25.7693 83.8954 26.4261 83.2385 27.2365 83.2385H76.0867C76.897 83.2385 77.5539 83.8954 77.5539 84.7057C77.5539 85.5158 76.897 86.1729 76.0867 86.1729Z" fill="#2626BC"/>
<path d="M31.089 59.315C30.7143 59.315 30.339 59.1721 30.0534 58.8861L26.5275 55.3602C25.9553 54.7881 25.9553 53.8605 26.5275 53.2886L30.0534 49.7628C30.625 49.1909 31.5531 49.1909 32.1247 49.7628C32.6969 50.3349 32.6969 51.2625 32.1247 51.8344L29.6347 54.3246L32.1247 56.8148C32.6969 57.387 32.6969 58.3145 32.1247 58.8864C31.839 59.172 31.4637 59.315 31.089 59.315Z" fill="#2626BC"/>
<path d="M44.7887 59.3151C44.414 59.3151 44.0387 59.1721 43.7531 58.8862C43.1809 58.314 43.1809 57.3865 43.7531 56.8146L46.243 54.3243L43.7531 51.8341C43.1809 51.2619 43.1809 50.3344 43.7531 49.7625C44.3247 49.1906 45.2528 49.1906 45.8244 49.7625L49.3503 53.2884C49.9224 53.8606 49.9224 54.7881 49.3503 55.36L45.8244 58.8859C45.5385 59.1721 45.1635 59.3151 44.7887 59.3151Z" fill="#2626BC"/>
<path d="M35.9464 59.3154C35.7023 59.3154 35.4551 59.2545 35.2277 59.1259C34.5231 58.728 34.2744 57.8344 34.6722 57.1299L38.6543 50.0781C39.0518 49.3738 39.9457 49.1251 40.65 49.5226C41.3546 49.9205 41.6033 50.814 41.2054 51.5186L37.2234 58.5704C36.9539 59.0473 36.4573 59.3154 35.9464 59.3154Z" fill="#2626BC"/>
<path d="M111.05 86.173H106.362C105.877 86.173 105.483 85.7796 105.483 85.2941V67.4623C105.483 66.9768 105.877 66.5834 106.362 66.5834H111.05C111.535 66.5834 111.928 66.9768 111.928 67.4623V85.2941C111.928 85.7796 111.535 86.173 111.05 86.173Z" fill="#6583FE"/>
<path d="M101.466 86.173H96.7783C96.2929 86.173 95.8994 85.7795 95.8994 85.2941V74.2617C95.8994 73.7763 96.2929 73.3828 96.7783 73.3828H101.466C101.951 73.3828 102.345 73.7763 102.345 74.2617V85.2941C102.345 85.7795 101.951 86.173 101.466 86.173Z" fill="#6583FE"/>
<path d="M120.634 86.1728H115.946C115.461 86.1728 115.067 85.7794 115.067 85.2939V62.3428C115.067 61.8573 115.461 61.4639 115.946 61.4639H120.634C121.119 61.4639 121.512 61.8573 121.512 62.3428V85.2939C121.512 85.7794 121.119 86.1728 120.634 86.1728Z" fill="#6583FE"/>
<path d="M90.4514 52.6086C91.3559 52.6086 92.0891 51.8754 92.0891 50.9709C92.0891 50.0665 91.3559 49.3333 90.4514 49.3333C89.5469 49.3333 88.8137 50.0665 88.8137 50.9709C88.8137 51.8754 89.5469 52.6086 90.4514 52.6086Z" fill="#2626BC"/>
<path d="M85.4968 52.6086C86.4013 52.6086 87.1345 51.8754 87.1345 50.9709C87.1345 50.0665 86.4013 49.3333 85.4968 49.3333C84.5924 49.3333 83.8591 50.0665 83.8591 50.9709C83.8591 51.8754 84.5924 52.6086 85.4968 52.6086Z" fill="#2626BC"/>
<path d="M80.543 52.6086C81.4475 52.6086 82.1807 51.8754 82.1807 50.9709C82.1807 50.0665 81.4475 49.3333 80.543 49.3333C79.6385 49.3333 78.9053 50.0665 78.9053 50.9709C78.9053 51.8754 79.6385 52.6086 80.543 52.6086Z" fill="#2626BC"/>
</g>
<defs>
<linearGradient id="paint0_linear_1_305" x1="20.1019" y1="-1.81651" x2="120.736" y2="148.416" gradientUnits="userSpaceOnUse">
<stop stop-color="#D2DEFF" stop-opacity="0"/>
<stop offset="1" stop-color="#B7C5FF"/>
</linearGradient>
<clipPath id="clip0_1_305">
<rect width="150" height="150" fill="white"/>
</clipPath>
</defs>
</svg>
