<svg width="40" height="40" viewBox="0 0 40 40" fill="none" xmlns="http://www.w3.org/2000/svg">
<circle cx="20" cy="20" r="20" fill="#FDC510"/>
<ellipse cx="19.9998" cy="20" rx="17.3333" ry="17.3333" fill="white"/>
<path d="M24.7374 30.4C24.7222 30.4 24.7071 30.4 24.6917 30.3998C23.258 30.3926 21.6971 30.0294 20.0523 29.3199C19.6053 29.1271 19.3995 28.6085 19.5922 28.1617C19.7847 27.7147 20.3033 27.5089 20.7503 27.7016C22.1561 28.3081 23.5221 28.6317 24.7007 28.6374C26.1807 28.6441 27.4183 28.201 28.2758 27.3531L28.2799 27.3485C28.7792 26.7922 28.7487 25.9503 28.2108 25.4315C26.0892 23.3855 25.0951 23.5257 24.1811 24.4168L22.6754 25.9115C22.4172 26.1676 22.0283 26.2392 21.696 26.0912C21.6102 26.0529 19.1376 25.4597 16.8416 23.1636V23.1586C14.545 20.862 13.947 18.3899 13.909 18.3041C13.7609 17.9718 13.8323 17.5829 14.0884 17.3249L15.5832 15.8189C16.4744 14.9047 16.1343 14.1217 14.0884 12C13.5698 11.4621 13.2077 11.221 12.6517 11.7201L12.6471 11.7242C11.7992 12.5818 11.3552 13.8175 11.3625 15.2994C11.3768 18.1804 13.0143 21.5291 15.7426 24.2575C16.2631 24.7777 16.8576 25.2952 17.5098 25.7952C17.896 26.0914 17.9689 26.6445 17.6729 27.0307C17.3767 27.4169 16.8234 27.4898 16.4375 27.1938C15.7241 26.647 15.0712 26.0784 14.4966 25.5035C11.4472 22.4543 9.61673 18.643 9.60021 15.3084C9.59034 13.336 10.2184 11.6602 11.4169 10.4621C11.4279 10.4509 11.4396 10.4399 11.4513 10.4293L11.4745 10.4085C12.7403 9.27234 14.6566 9.34164 15.8372 10.5659C16.9322 11.7013 17.5646 12.655 17.8283 13.5669C18.1945 14.8345 17.8627 16.0073 16.8416 17.0528C16.84 17.0546 16.8381 17.0562 16.8365 17.0578L15.794 18.1081C16.1874 18.7972 17.0203 20.0882 18.413 21.4809L18.519 21.5867C19.9114 22.9791 21.2022 23.8123 21.892 24.2059L22.9422 23.1636L22.9473 23.1586C23.9927 22.1374 25.1658 21.8056 26.4334 22.1718C27.3453 22.4353 28.2987 23.0679 29.4341 24.1627C30.6586 25.3436 30.7277 27.2599 29.5916 28.5257L29.5709 28.5486C29.5604 28.5606 29.5493 28.572 29.5381 28.5833C28.349 29.7722 26.6897 30.4 24.7374 30.4Z" fill="#FDC510"/>
</svg>
