<svg width="150" height="150" viewBox="0 0 150 150" fill="none" xmlns="http://www.w3.org/2000/svg">
<g clip-path="url(#clip0_1_226)">
<path d="M119.598 46.1447C112.656 43.3618 106.791 38.2838 103.203 31.567C97.1713 20.2718 85.4994 12.6152 72.0841 12.6152C58.1593 12.6152 46.1136 20.8642 40.3037 32.869C36.7453 40.2212 30.6902 45.994 23.2852 49.0677C12.3431 53.6096 3.15734 63.9898 0.242298 80.2177C-0.0776238 81.9984 -0.0823113 83.8292 0.23761 85.6099C4.76339 110.791 24.3779 121.898 42.23 118.953C52.2278 117.304 62.3487 120.733 69.7594 127.83C84.8279 142.26 108.983 146.785 132.432 131.316C135.179 129.504 138.865 125.702 140.625 122.875C160.83 90.433 145.863 56.673 119.598 46.1447Z" fill="url(#paint0_linear_1_226)"/>
<path opacity="0.1" d="M133.594 30.9307V107.539C133.594 110.033 131.625 112.058 129.199 112.058H20.801C18.3752 112.058 16.4065 110.033 16.4065 107.539V30.9307C16.4065 28.4358 18.3752 26.411 20.801 26.411H129.199C131.625 26.411 133.594 28.4358 133.594 30.9307Z" fill="#2626BC"/>
<path d="M91.6145 140.293H58.3857L65.0309 113.204H84.9694L91.6145 140.293Z" fill="white"/>
<path d="M133.594 37.259V113.867C133.594 116.362 131.625 118.387 129.199 118.387H20.801C18.3752 118.387 16.4065 116.362 16.4065 113.867V37.259C16.4065 34.7642 18.3752 32.7394 20.801 32.7394H129.199C131.625 32.7394 133.594 34.7642 133.594 37.259Z" fill="white"/>
<path d="M125.391 103.203H62.6956V56.8204C62.6956 56.3212 63.089 55.9165 63.5745 55.9165H124.512C124.997 55.9165 125.391 56.3212 125.391 56.8204V103.203Z" fill="white"/>
<path d="M125.391 62.2765H62.6956V56.8207C62.6956 56.3214 63.089 55.9167 63.5745 55.9167H124.512C124.997 55.9167 125.391 56.3214 125.391 56.8207V62.2765Z" fill="#6583FE"/>
<path d="M125.391 103.203H62.6956V56.8204C62.6956 56.3212 63.089 55.9165 63.5745 55.9165H124.512C124.997 55.9165 125.391 56.3212 125.391 56.8204V103.203Z" stroke="#2626BC" stroke-width="10" stroke-miterlimit="10"/>
<path d="M133.594 47.2538V37.259C133.594 34.763 131.626 32.7394 129.199 32.7394H20.801C18.3741 32.7394 16.4065 34.763 16.4065 37.259V47.2538H133.594Z" fill="white"/>
<path d="M16.4065 103.203V113.866C16.4065 116.362 18.3741 118.386 20.801 118.386H129.199C131.626 118.386 133.594 116.362 133.594 113.866V103.203H16.4065Z" fill="white"/>
<path d="M27.5635 38.4683C26.7546 38.4683 26.0986 39.1426 26.0986 39.9748V40.0185C26.0986 40.8507 26.7546 41.525 27.5635 41.525C28.3724 41.525 29.0283 40.8507 29.0283 40.0185V39.9748C29.0283 39.1426 28.3724 38.4683 27.5635 38.4683Z" fill="#2626BC"/>
<path d="M33.2251 38.4683C32.4162 38.4683 31.7603 39.1426 31.7603 39.9748V40.0185C31.7603 40.8507 32.4162 41.525 33.2251 41.525C34.034 41.525 34.6899 40.8507 34.6899 40.0185V39.9748C34.6899 39.1426 34.034 38.4683 33.2251 38.4683Z" fill="#2626BC"/>
<path d="M38.8867 38.4683C38.0778 38.4683 37.4219 39.1426 37.4219 39.9748V40.0185C37.4219 40.8507 38.0778 41.525 38.8867 41.525C39.6956 41.525 40.3516 40.8507 40.3516 40.0185V39.9748C40.3516 39.1426 39.6959 38.4683 38.8867 38.4683Z" fill="#2626BC"/>
<path d="M129.2 31.2325H20.8013C17.5704 31.2325 14.9419 33.9359 14.9419 37.2587V47.2538C14.9419 48.086 15.5979 48.7603 16.4067 48.7603H132.129V101.696H17.8716V55.5518C17.8716 54.7196 17.2156 54.0453 16.4067 54.0453C15.5979 54.0453 14.9419 54.7196 14.9419 55.5518V113.866C14.9419 117.189 17.5704 119.892 20.8013 119.892H61.8796L57.2448 138.784H52.7542C51.9453 138.784 51.2893 139.459 51.2893 140.291C51.2893 141.123 51.9453 141.798 52.7542 141.798H58.3859C59.0571 141.798 59.6422 141.329 59.8062 140.66L64.901 119.892H85.0994L89.7336 138.784L66.4543 138.786C65.6454 138.786 64.9894 139.461 64.9894 140.293C64.9894 141.125 65.6454 141.799 66.4543 141.799L97.2465 141.798C98.0554 141.798 98.7113 141.123 98.7113 140.291C98.7113 139.459 98.0554 138.784 97.2465 138.784H92.755L88.1208 119.892H129.2C132.431 119.892 135.059 117.189 135.059 113.866V37.2587C135.059 33.9359 132.431 31.2325 129.2 31.2325ZM17.8716 45.7472V37.2587C17.8716 35.5973 19.1858 34.2456 20.8013 34.2456H129.2C130.815 34.2456 132.129 35.5973 132.129 37.2587V45.7472H17.8716ZM129.2 116.879H20.8013C19.1858 116.879 17.8716 115.528 17.8716 113.866V104.709H132.129V113.866C132.129 115.527 130.815 116.879 129.2 116.879Z" fill="#2626BC"/>
<path d="M53.5086 69.7867C54.5478 63.1934 50.1933 56.982 43.7825 55.9132C37.3718 54.8444 31.3323 59.3228 30.2931 65.9161C29.2538 72.5094 33.6083 78.7208 40.0191 79.7896C46.4299 80.8585 52.4694 76.38 53.5086 69.7867Z" fill="#6583FE"/>
<path d="M46.7813 66.1103C46.7813 63.3503 44.5978 61.105 41.9142 61.105C39.2306 61.105 37.0471 63.3503 37.0471 66.1103C37.0471 67.4717 37.5797 68.7061 38.4402 69.6095C37.58 70.5128 37.0471 71.7475 37.0471 73.1086C37.0471 73.9408 37.7031 74.6151 38.512 74.6151C39.3208 74.6151 39.9768 73.9408 39.9768 73.1086C39.9768 72.01 40.8458 71.116 41.9142 71.116C42.9827 71.116 43.8516 72.01 43.8516 73.1086C43.8516 73.9408 44.5076 74.6151 45.3165 74.6151C46.1253 74.6151 46.7813 73.9408 46.7813 73.1086C46.7813 71.7472 46.2487 70.5128 45.3882 69.6095C46.2487 68.7064 46.7813 67.4717 46.7813 66.1103ZM41.9142 64.1181C42.9824 64.1181 43.8516 65.0118 43.8516 66.1103C43.8516 67.2089 42.9824 68.1029 41.9142 68.1029C40.846 68.1029 39.9768 67.2089 39.9768 66.1103C39.9768 65.0118 40.8458 64.1181 41.9142 64.1181Z" fill="#2626BC"/>
<path d="M112.889 76.8926H75.1974C72.9041 76.8926 71.0452 74.9805 71.0452 72.6221C71.0452 70.2635 72.9043 68.3517 75.1974 68.3517H112.889C115.182 68.3517 117.041 70.2638 117.041 72.6221C117.041 74.9805 115.182 76.8926 112.889 76.8926Z" fill="#6583FE"/>
<path d="M89.0889 74.3716C89.9933 74.3716 90.7266 73.6175 90.7266 72.6872C90.7266 71.757 89.9933 71.0029 89.0889 71.0029C88.1844 71.0029 87.4512 71.757 87.4512 72.6872C87.4512 73.6175 88.1844 74.3716 89.0889 74.3716Z" fill="#2626BC"/>
<path d="M94.0435 74.3716C94.9479 74.3716 95.6812 73.6175 95.6812 72.6872C95.6812 71.757 94.9479 71.0029 94.0435 71.0029C93.139 71.0029 92.4058 71.757 92.4058 72.6872C92.4058 73.6175 93.139 74.3716 94.0435 74.3716Z" fill="#2626BC"/>
<path d="M98.9976 71.0029C99.9019 71.0029 100.635 71.7571 100.635 72.6872C100.635 73.6174 99.9019 74.3716 98.9976 74.3716C98.0932 74.3716 97.3599 73.6174 97.3599 72.6872C97.3599 71.7571 98.0929 71.0029 98.9976 71.0029Z" fill="#2626BC"/>
<path d="M112.889 88.7943H75.1974C72.9041 88.7943 71.0452 86.8822 71.0452 84.5239C71.0452 82.1652 72.9043 80.2534 75.1974 80.2534H112.889C115.182 80.2534 117.041 82.1655 117.041 84.5239C117.041 86.8822 115.182 88.7943 112.889 88.7943Z" fill="#6583FE"/>
<path d="M89.0889 86.2732C89.9933 86.2732 90.7266 85.5191 90.7266 84.5889C90.7266 83.6586 89.9933 82.9045 89.0889 82.9045C88.1844 82.9045 87.4512 83.6586 87.4512 84.5889C87.4512 85.5191 88.1844 86.2732 89.0889 86.2732Z" fill="#2626BC"/>
<path d="M94.0435 86.2732C94.9479 86.2732 95.6812 85.5191 95.6812 84.5889C95.6812 83.6586 94.9479 82.9045 94.0435 82.9045C93.139 82.9045 92.4058 83.6586 92.4058 84.5889C92.4058 85.5191 93.139 86.2732 94.0435 86.2732Z" fill="#2626BC"/>
<path d="M98.9976 82.9045C99.9019 82.9045 100.635 83.6587 100.635 84.5889C100.635 85.519 99.9019 86.2732 98.9976 86.2732C98.0932 86.2732 97.3599 85.519 97.3599 84.5889C97.3599 83.6587 98.0929 82.9045 98.9976 82.9045Z" fill="#2626BC"/>
<path d="M99.8715 97.7824H88.2776C87.7921 97.7824 87.3987 97.3778 87.3987 96.8785V93.4134C87.3987 92.9142 87.7921 92.5095 88.2776 92.5095H99.8715C100.357 92.5095 100.75 92.9142 100.75 93.4134V96.8785C100.75 97.3778 100.357 97.7824 99.8715 97.7824Z" fill="#6583FE"/>
<path d="M51.6682 87.676H32.1605C31.3317 87.676 30.6597 86.9848 30.6597 86.1324C30.6597 85.28 31.3314 84.5887 32.1605 84.5887H51.6682C52.497 84.5887 53.169 85.28 53.169 86.1324C53.169 86.9848 52.497 87.676 51.6682 87.676Z" fill="#2626BC"/>
<path d="M46.3947 93.4008H37.434C36.6052 93.4008 35.9331 92.7096 35.9331 91.8572C35.9331 91.0048 36.6049 90.3136 37.434 90.3136H46.3947C47.2235 90.3136 47.8956 91.0048 47.8956 91.8572C47.8956 92.7096 47.2235 93.4008 46.3947 93.4008Z" fill="#2626BC"/>
<path d="M109.632 136.271C109.257 136.271 108.883 136.123 108.596 135.829L105.375 132.517C104.803 131.928 104.803 130.974 105.375 130.386L108.596 127.074C109.168 126.485 110.096 126.485 110.668 127.074L113.889 130.386C114.461 130.974 114.461 131.928 113.889 132.517L110.668 135.829C110.382 136.123 110.007 136.271 109.632 136.271ZM108.483 131.451L109.632 132.633L110.782 131.451L109.632 130.269L108.483 131.451Z" fill="#6583FE"/>
<path d="M38.5119 28.4207C38.1369 28.4207 37.7622 28.2736 37.4759 27.9793L34.2551 24.6667C33.6829 24.0785 33.6829 23.1246 34.2551 22.5364L37.4759 19.2238C38.0481 18.6354 38.9754 18.6354 39.5475 19.2238L42.7684 22.5364C43.3406 23.1246 43.3406 24.0785 42.7684 24.6667L39.5475 27.9793C39.2616 28.2736 38.8869 28.4207 38.5119 28.4207ZM37.3626 23.6015L38.5119 24.7836L39.6612 23.6015L38.5119 22.4195L37.3626 23.6015Z" fill="#6583FE"/>
<path d="M53.1686 21.4375C52.7936 21.4375 52.4189 21.2905 52.1327 20.9961L48.9118 17.6835C48.3396 17.0954 48.3396 16.1414 48.9118 15.5533L52.1327 12.2407C52.7049 11.6522 53.6321 11.6522 54.2043 12.2407L57.4252 15.5533C57.9973 16.1414 57.9973 17.0954 57.4252 17.6835L54.2043 20.9961C53.9186 21.2902 53.5436 21.4375 53.1686 21.4375ZM52.0196 16.6184L53.1689 17.8004L54.3182 16.6184L53.1689 15.4363L52.0196 16.6184Z" fill="#6583FE"/>
<path d="M120.269 23.0954C119.46 23.0954 118.804 22.4211 118.804 21.5888C118.804 20.5891 118.013 19.7756 117.041 19.7756C116.232 19.7756 115.576 19.1012 115.576 18.269C115.576 17.4368 116.232 16.7625 117.041 16.7625C118.013 16.7625 118.804 15.9492 118.804 14.9492C118.804 14.117 119.46 13.4426 120.269 13.4426C121.078 13.4426 121.734 14.117 121.734 14.9492C121.734 15.9489 122.525 16.7625 123.497 16.7625C124.306 16.7625 124.962 17.4368 124.962 18.269C124.962 19.1012 124.306 19.7756 123.497 19.7756C122.525 19.7756 121.734 20.5888 121.734 21.5888C121.734 22.4208 121.078 23.0954 120.269 23.0954Z" fill="#6583FE"/>
</g>
<defs>
<linearGradient id="paint0_linear_1_226" x1="8.49142" y1="37.1928" x2="149.315" y2="120.909" gradientUnits="userSpaceOnUse">
<stop stop-color="#D2DEFF" stop-opacity="0"/>
<stop offset="1" stop-color="#B7C5FF"/>
</linearGradient>
<clipPath id="clip0_1_226">
<rect width="150" height="150" fill="white"/>
</clipPath>
</defs>
</svg>
