<svg width="150" height="150" viewBox="0 0 150 150" fill="none" xmlns="http://www.w3.org/2000/svg">
<path d="M119.598 32.9016C112.656 30.1957 106.79 25.2583 103.203 18.7274C97.171 7.74492 85.4991 0.300293 72.0838 0.300293C58.159 0.300293 46.1133 8.3209 40.3034 19.9934C36.745 27.1421 30.69 32.7551 23.2849 35.7437C12.3431 40.1602 3.15734 50.2529 0.242298 66.0316C-0.0776238 67.7631 -0.0823113 69.5432 0.237611 71.2746C4.76339 95.7586 24.3779 106.558 42.23 103.695C52.2278 102.091 62.3487 105.426 69.7594 112.326C84.8279 126.357 108.983 130.756 132.432 115.716C135.179 113.954 138.865 110.256 140.625 107.508C160.83 75.9639 145.863 43.1385 119.598 32.9016Z" fill="url(#paint0_linear_1_261)"/>
<path opacity="0.1" d="M133.594 17.6156V92.1029C133.594 94.5287 131.625 96.4974 129.199 96.4974H20.8008C18.375 96.4974 16.4062 94.5287 16.4062 92.1029V17.6156C16.4062 15.1898 18.375 13.2211 20.8008 13.2211H129.199C131.625 13.2211 133.594 15.1898 133.594 17.6156Z" fill="#2626BC"/>
<path d="M102.827 117.603C102.452 117.603 102.077 117.46 101.791 117.174L98.5629 113.946C97.9907 113.374 97.9907 112.446 98.5629 111.874L101.791 108.647C102.363 108.075 103.29 108.075 103.862 108.647L107.09 111.874C107.663 112.447 107.663 113.374 107.09 113.946L103.862 117.174C103.576 117.46 103.202 117.603 102.827 117.603ZM101.67 112.91L102.827 114.067L103.983 112.91L102.827 111.754L101.67 112.91Z" fill="#6583FE"/>
<path d="M117.31 121.422C116.935 121.422 116.56 121.279 116.274 120.993L113.046 117.765C112.474 117.193 112.474 116.266 113.046 115.694L116.274 112.466C116.549 112.191 116.921 112.037 117.31 112.037C117.699 112.037 118.071 112.191 118.346 112.466L121.574 115.694C121.849 115.969 122.003 116.341 122.003 116.73C122.003 117.118 121.848 117.491 121.574 117.766L118.346 120.993C118.06 121.279 117.685 121.422 117.31 121.422ZM116.154 116.729L117.31 117.886L118.466 116.729L117.31 115.573L116.154 116.729Z" fill="#6583FE"/>
<path d="M60.8647 13.95C60.0558 13.95 59.3998 13.294 59.3998 12.4852C59.3998 11.5131 58.6088 10.7221 57.6367 10.7221C56.8278 10.7221 56.1719 10.0661 56.1719 9.25723C56.1719 8.44834 56.8278 7.79238 57.6367 7.79238C58.6088 7.79238 59.3998 7.00137 59.3998 6.0293C59.3998 5.22041 60.0558 4.56445 60.8647 4.56445C61.6735 4.56445 62.3295 5.22041 62.3295 6.0293C62.3295 7.00137 63.1205 7.79238 64.0926 7.79238C64.9015 7.79238 65.5574 8.44834 65.5574 9.25723C65.5574 10.0661 64.9015 10.7221 64.0926 10.7221C63.1205 10.7221 62.3295 11.5131 62.3295 12.4852C62.3295 13.2943 61.6738 13.95 60.8647 13.95Z" fill="#6583FE"/>
<path d="M91.6143 123.951H58.3855L62.7162 106.782L65.0306 97.6116H84.9692L87.2836 106.782L91.6143 123.951Z" fill="white"/>
<path d="M133.594 23.7689V98.2562C133.594 100.682 131.625 102.651 129.199 102.651H20.8008C18.375 102.651 16.4062 100.682 16.4062 98.2562V23.7689C16.4062 21.3431 18.375 19.3744 20.8008 19.3744H129.199C131.625 19.3744 133.594 21.3431 133.594 23.7689Z" fill="white"/>
<path d="M36.2783 19.3744H113.722V87.8875H36.2783V19.3744Z" fill="white"/>
<path d="M44.4825 93.4547H26.1233C25.6378 93.4547 25.2444 93.0612 25.2444 92.5758V79.4897C25.2444 79.0043 25.6378 78.6108 26.1233 78.6108H44.4828C44.9682 78.6108 45.3617 79.0043 45.3617 79.4897V92.5758C45.3614 93.0615 44.9679 93.4547 44.4825 93.4547Z" fill="#6583FE"/>
<path d="M41.4312 93.4544H34.3999V84.8402C34.3999 84.3548 34.7934 83.9613 35.2788 83.9613H40.5522C41.0377 83.9613 41.4312 84.3548 41.4312 84.8402V93.4544Z" fill="#6583FE"/>
<path d="M70.9474 93.4547H52.5879C52.1024 93.4547 51.709 93.0612 51.709 92.5758V79.4897C51.709 79.0043 52.1024 78.6108 52.5879 78.6108H70.9474C71.4328 78.6108 71.8263 79.0043 71.8263 79.4897V92.5758C71.8263 93.0615 71.4325 93.4547 70.9474 93.4547Z" fill="#6583FE"/>
<path d="M67.896 93.4544H60.8647V84.8402C60.8647 84.3548 61.2582 83.9613 61.7437 83.9613H67.0171C67.5025 83.9613 67.896 84.3548 67.896 84.8402V93.4544Z" fill="#6583FE"/>
<path d="M97.4122 93.4547H79.0527C78.5673 93.4547 78.1738 93.0612 78.1738 92.5758V79.4897C78.1738 79.0043 78.5673 78.6108 79.0527 78.6108H97.4122C97.8976 78.6108 98.2911 79.0043 98.2911 79.4897V92.5758C98.2911 93.0615 97.8976 93.4547 97.4122 93.4547Z" fill="#6583FE"/>
<path d="M94.3608 93.4544H87.3296V84.8402C87.3296 84.3548 87.723 83.9613 88.2085 83.9613H93.4819C93.9674 83.9613 94.3608 84.3548 94.3608 84.8402V93.4544Z" fill="#6583FE"/>
<path d="M123.877 93.4547H105.517C105.032 93.4547 104.638 93.0612 104.638 92.5758V79.4897C104.638 79.0043 105.032 78.6108 105.517 78.6108H123.877C124.362 78.6108 124.756 79.0043 124.756 79.4897V92.5758C124.756 93.0615 124.362 93.4547 123.877 93.4547Z" fill="#6583FE"/>
<path d="M120.826 93.4544H113.794V84.8402C113.794 84.3548 114.188 83.9613 114.673 83.9613H119.947C120.432 83.9613 120.826 84.3548 120.826 84.8402V93.4544Z" fill="#6583FE"/>
<path d="M133.594 33.487V23.7689C133.594 21.342 131.626 19.3744 129.199 19.3744H20.8008C18.3738 19.3744 16.4062 21.342 16.4062 23.7689V33.487H133.594Z" fill="white"/>
<path d="M16.4062 87.8871V98.2552C16.4062 100.682 18.3738 102.65 20.8008 102.65H129.199C131.626 102.65 133.594 100.682 133.594 98.2552V87.8871H16.4062Z" fill="white"/>
<path d="M27.563 27.9168C28.3719 27.9168 29.0278 27.2608 29.0278 26.4519V26.4094C29.0278 25.6005 28.3719 24.9446 27.563 24.9446C26.7541 24.9446 26.0981 25.6005 26.0981 26.4094V26.4519C26.0981 27.2608 26.7541 27.9168 27.563 27.9168Z" fill="#2626BC"/>
<path d="M33.2246 27.9168C34.0335 27.9168 34.6894 27.2608 34.6894 26.4519V26.4094C34.6894 25.6005 34.0335 24.9446 33.2246 24.9446C32.4157 24.9446 31.7598 25.6005 31.7598 26.4094V26.4519C31.7598 27.2608 32.4157 27.9168 33.2246 27.9168Z" fill="#2626BC"/>
<path d="M38.886 27.9168C39.6949 27.9168 40.3508 27.2608 40.3508 26.4519V26.4094C40.3508 25.6005 39.6949 24.9446 38.886 24.9446C38.0771 24.9446 37.4211 25.6005 37.4211 26.4094V26.4519C37.4211 27.2608 38.0771 27.9168 38.886 27.9168Z" fill="#2626BC"/>
<path d="M129.199 17.9095H20.8008C17.5699 17.9095 14.9414 20.5381 14.9414 23.7689V98.2553C14.9414 101.486 17.5699 104.115 20.8008 104.115H61.8788L57.2435 122.484H52.7537C51.9448 122.484 51.2889 123.14 51.2889 123.949C51.2889 124.758 51.9448 125.414 52.7537 125.414H97.2463C98.0552 125.414 98.7111 124.758 98.7111 123.949C98.7111 123.14 98.0552 122.484 97.2463 122.484H92.7566L89.5272 109.686C89.3291 108.901 88.5322 108.426 87.7486 108.623C86.964 108.822 86.4888 109.618 86.6865 110.402L89.7352 122.484H60.2648L64.9002 104.114H129.199C132.43 104.114 135.059 101.486 135.059 98.255V23.7689C135.059 20.5381 132.43 17.9095 129.199 17.9095ZM20.8008 20.8392H129.199C130.815 20.8392 132.129 22.1535 132.129 23.7689V32.0221H24.4749C23.666 32.0221 23.0101 32.6781 23.0101 33.487C23.0101 34.2959 23.666 34.9518 24.4749 34.9518H132.129V86.4223H17.8711V23.7689C17.8711 22.1532 19.1854 20.8392 20.8008 20.8392ZM129.199 101.185H20.8008C19.1854 101.185 17.8711 99.8708 17.8711 98.2553V89.352H132.129V98.2553C132.129 99.8708 130.815 101.185 129.199 101.185Z" fill="#2626BC"/>
<path d="M44.4825 55.1323H26.1233C25.6378 55.1323 25.2444 54.7388 25.2444 54.2534V41.1674C25.2444 40.6819 25.6378 40.2885 26.1233 40.2885H44.4828C44.9682 40.2885 45.3617 40.6819 45.3617 41.1674V54.2534C45.3614 54.7388 44.9679 55.1323 44.4825 55.1323Z" fill="#6583FE"/>
<path d="M41.4312 55.132H34.3999V46.5178C34.3999 46.0324 34.7934 45.6389 35.2788 45.6389H40.5522C41.0377 45.6389 41.4312 46.0324 41.4312 46.5178V55.132Z" fill="#6583FE"/>
<path d="M70.9476 55.1323H52.5881C52.1027 55.1323 51.7092 54.7388 51.7092 54.2534V41.1674C51.7092 40.6819 52.1027 40.2885 52.5881 40.2885H70.9476C71.4331 40.2885 71.8265 40.6819 71.8265 41.1674V54.2534C71.8265 54.7388 71.4328 55.1323 70.9476 55.1323Z" fill="#6583FE"/>
<path d="M67.896 55.132H60.8647V46.5178C60.8647 46.0324 61.2582 45.6389 61.7437 45.6389H67.0171C67.5025 45.6389 67.896 46.0324 67.896 46.5178V55.132Z" fill="#6583FE"/>
<path d="M97.4122 55.1323H79.0527C78.5673 55.1323 78.1738 54.7388 78.1738 54.2534V41.1674C78.1738 40.6819 78.5673 40.2885 79.0527 40.2885H97.4122C97.8976 40.2885 98.2911 40.6819 98.2911 41.1674V54.2534C98.2911 54.7388 97.8976 55.1323 97.4122 55.1323Z" fill="#6583FE"/>
<path d="M94.3611 55.132H87.3298V46.5178C87.3298 46.0324 87.7233 45.6389 88.2087 45.6389H93.4822C93.9676 45.6389 94.3611 46.0324 94.3611 46.5178V55.132Z" fill="#6583FE"/>
<path d="M123.877 55.1323H105.518C105.032 55.1323 104.639 54.7388 104.639 54.2534V41.1674C104.639 40.6819 105.032 40.2885 105.518 40.2885H123.877C124.363 40.2885 124.756 40.6819 124.756 41.1674V54.2534C124.756 54.7388 124.363 55.1323 123.877 55.1323Z" fill="#6583FE"/>
<path d="M120.826 55.132H113.794V46.5178C113.794 46.0324 114.188 45.6389 114.673 45.6389H119.947C120.432 45.6389 120.826 46.0324 120.826 46.5178V55.132Z" fill="#6583FE"/>
<path d="M44.4825 74.2933H26.1233C25.6378 74.2933 25.2444 73.8999 25.2444 73.4144V60.3284C25.2444 59.8429 25.6378 59.4495 26.1233 59.4495H44.4828C44.9682 59.4495 45.3617 59.8429 45.3617 60.3284V73.4144C45.3614 73.9002 44.9679 74.2933 44.4825 74.2933Z" fill="#6583FE"/>
<path d="M41.4312 74.2931H34.3999V65.679C34.3999 65.1935 34.7934 64.8 35.2788 64.8H40.5522C41.0377 64.8 41.4312 65.1935 41.4312 65.679V74.2931Z" fill="#6583FE"/>
<path d="M70.9476 74.2933H52.5881C52.1027 74.2933 51.7092 73.8999 51.7092 73.4144V60.3284C51.7092 59.8429 52.1027 59.4495 52.5881 59.4495H70.9476C71.4331 59.4495 71.8265 59.8429 71.8265 60.3284V73.4144C71.8265 73.9002 71.4328 74.2933 70.9476 74.2933Z" fill="#6583FE"/>
<path d="M67.896 74.2931H60.8647V65.679C60.8647 65.1935 61.2582 64.8 61.7437 64.8H67.0171C67.5025 64.8 67.896 65.1935 67.896 65.679V74.2931Z" fill="#6583FE"/>
<path d="M97.4122 74.2933H79.0527C78.5673 74.2933 78.1738 73.8999 78.1738 73.4144V60.3284C78.1738 59.8429 78.5673 59.4495 79.0527 59.4495H97.4122C97.8976 59.4495 98.2911 59.8429 98.2911 60.3284V73.4144C98.2911 73.9002 97.8976 74.2933 97.4122 74.2933Z" fill="#6583FE"/>
<path d="M94.3611 74.2931H87.3298V65.679C87.3298 65.1935 87.7233 64.8 88.2087 64.8H93.4822C93.9676 64.8 94.3611 65.1935 94.3611 65.679V74.2931Z" fill="#6583FE"/>
<path d="M123.877 74.2933H105.518C105.032 74.2933 104.639 73.8999 104.639 73.4144V60.3284C104.639 59.8429 105.032 59.4495 105.518 59.4495H123.877C124.363 59.4495 124.756 59.8429 124.756 60.3284V73.4144C124.756 73.9002 124.363 74.2933 123.877 74.2933Z" fill="#6583FE"/>
<path d="M120.826 74.2931H113.794V65.679C113.794 65.1935 114.188 64.8 114.673 64.8H119.947C120.432 64.8 120.826 65.1935 120.826 65.679V74.2931Z" fill="#6583FE"/>
<path d="M44.6591 9.38555C43.8502 9.38555 43.1942 8.72959 43.1942 7.9207C43.1942 6.94863 42.4032 6.15762 41.4312 6.15762C40.6223 6.15762 39.9663 5.50166 39.9663 4.69277C39.9663 3.88389 40.6223 3.22793 41.4312 3.22793C42.4032 3.22793 43.1942 2.43691 43.1942 1.46484C43.1942 0.655957 43.8502 0 44.6591 0C45.468 0 46.1239 0.655957 46.1239 1.46484C46.1239 2.43691 46.9149 3.22793 47.887 3.22793C48.6959 3.22793 49.3519 3.88389 49.3519 4.69277C49.3519 5.50166 48.6959 6.15762 47.887 6.15762C46.9149 6.15762 46.1239 6.94863 46.1239 7.9207C46.1239 8.72988 45.468 9.38555 44.6591 9.38555Z" fill="#6583FE"/>
<defs>
<linearGradient id="paint0_linear_1_261" x1="10.2317" y1="18.3009" x2="141.056" y2="118.935" gradientUnits="userSpaceOnUse">
<stop stop-color="#D2DEFF" stop-opacity="0"/>
<stop offset="1" stop-color="#B7C5FF"/>
</linearGradient>
</defs>
</svg>
