<svg width="709" height="612" viewBox="0 0 709 612" fill="none" xmlns="http://www.w3.org/2000/svg">
<path d="M516.865 277.982C516.865 277.982 555.804 341.417 593.017 376.365C630.229 411.313 673.544 447.115 647.312 512.86C621.079 578.605 543.762 605.53 405.501 602.094C267.239 598.658 218.421 597.91 188.098 528.186C157.776 458.462 258.694 442.825 327.63 421.627C396.565 400.429 516.865 277.982 516.865 277.982Z" fill="#E3E5FC"/>
<path opacity="0.49" d="M523.515 416.464C523.515 416.464 542.479 490.875 474.866 508.537C407.253 526.207 281.091 523.605 233.595 489.226C186.099 454.847 523.515 416.464 523.515 416.464Z" fill="url(#paint0_linear_133_446)"/>
<path d="M593.944 545.279C600.639 541.089 603.83 531.907 601.212 524.373C596.927 512.059 585.849 516.21 577.975 509.742C568.701 502.129 579.916 490.153 579.297 481.163C578.62 471.272 569.86 461.719 567.223 452.16C561.173 430.187 585.745 446.585 592.752 444.023C595.683 442.951 597.604 439.959 598.281 436.86C600.001 428.962 596.731 422.581 600.984 415.106C605.093 407.89 611.163 404.633 609.411 394.835C608.421 389.288 605.054 384.203 605.139 378.563C605.165 376.948 605.614 375.134 607.002 374.346C608.057 373.743 609.372 373.909 610.512 374.313C614.296 375.663 616.783 379.251 619.831 381.906C622.879 384.561 627.777 386.203 630.701 383.409C632.648 381.549 632.837 378.543 633.234 375.855C633.944 371.009 637.291 367.646 641.446 370.447C645.973 373.498 644.24 385.514 643.557 389.824C642.475 396.656 640.834 403.753 642.834 410.373C646.136 421.323 655.162 409.056 659.096 405.428C662.319 402.455 667.705 400.674 670.799 403.779C676.959 409.956 667.054 418.211 665.751 424.064C665.126 426.851 665.934 430.187 668.369 431.617C675.501 435.814 681.525 428.334 682.606 439.502C683.348 447.155 676.536 454.45 680.763 462.103C684.455 468.79 696.745 471.63 691.886 481.011C688.903 486.77 676.061 486.512 676.738 494.708C677.181 500.05 685.081 502.473 685.087 507.836C685.094 511.874 680.47 514.257 676.504 514.462C672.537 514.668 668.356 513.728 664.703 515.303C660.554 517.091 658.151 522.274 659.434 526.67C660.554 530.49 664.052 533.966 662.951 537.792C661.629 542.393 655.357 542.559 650.701 541.824C631.671 538.798 611.293 536.779 593.944 545.279Z" fill="#FDC510"/>
<path d="M629.88 543.373C629.203 543.373 628.662 542.817 628.662 542.135V455.827C628.662 455.145 629.209 454.589 629.88 454.589C630.557 454.589 631.098 455.145 631.098 455.827V542.128C631.098 542.817 630.557 543.373 629.88 543.373Z" fill="white"/>
<path d="M629.88 509.782C629.607 509.782 629.34 509.689 629.112 509.504C628.591 509.074 628.506 508.292 628.936 507.756L651.202 479.852C651.632 479.316 652.401 479.243 652.922 479.673C653.443 480.104 653.527 480.885 653.098 481.421L630.831 509.325C630.584 509.623 630.238 509.782 629.88 509.782Z" fill="white"/>
<path d="M629.88 486.214C629.6 486.214 629.32 486.121 629.092 485.923L602.553 463.222C602.039 462.779 601.974 461.997 602.404 461.474C602.84 460.951 603.608 460.885 604.123 461.322L630.662 484.023C631.176 484.466 631.242 485.247 630.812 485.77C630.571 486.068 630.226 486.214 629.88 486.214Z" fill="white"/>
<path d="M590.232 533.184C593.722 556.772 596.868 581.446 602.742 604.206C603.231 606.099 603.804 608.085 604.989 609.303C606.389 610.74 608.291 610.766 610.043 610.727C620.176 610.488 630.329 611.15 640.463 611.091C650.043 611.038 657.956 611.826 658.959 595.653C659.304 590.045 660.177 533.178 665.263 533.178C665.243 533.184 590.232 533.184 590.232 533.184Z" fill="#978CFF"/>
<path d="M658.412 547.279H597.083C589.457 547.279 583.211 540.937 583.211 533.178C583.211 525.425 589.45 519.077 597.083 519.077H658.412C666.038 519.077 672.284 525.419 672.284 533.178C672.284 540.937 666.038 547.279 658.412 547.279Z" fill="#A7ADFF"/>
<path d="M468.366 29.4466C468.366 29.4466 476.403 47.5992 463.846 58.7741C451.29 69.949 434.221 61.1044 417.653 71.3393C401.085 81.5741 402.869 93.7023 410.47 120.706C419.509 152.827 429.382 151.867 438.259 154.191C447.135 156.521 449.786 181.658 450.789 193.297C451.792 204.935 453.296 212.846 421.665 228.675C390.033 244.504 407.291 268.714 410.463 300.094C413.973 334.803 373.459 354.823 366.432 363.204C359.405 371.585 342.83 372.982 333.791 355.293C324.751 337.604 370.684 324.582 366.673 296.188C362.654 267.794 338.128 248.688 372.775 220.757C407.422 192.827 400.577 170.49 389.03 147.683C377.483 124.877 371.961 116.032 381.495 86.7048C391.03 57.3773 380.994 66.2219 393.543 42.9452C406.106 19.6752 451.798 -5.93171 468.366 29.4466Z" fill="#4B369D"/>
<path d="M446.517 167.22L449.037 215.011L485.839 229.436C485.839 229.436 463.71 196.521 467.461 167.213C471.212 137.912 446.517 167.22 446.517 167.22Z" fill="#D4A79A"/>
<path d="M531.805 322.258C531.805 322.258 529.363 317.71 522.043 294.354C514.723 270.998 512.079 262.312 501.913 239.711C491.747 217.109 470.594 202.989 470.594 202.989L444.159 201.539C444.159 201.539 440.903 201.744 425.657 214.561C410.405 227.377 395.764 263.967 395.764 263.967L389.258 336.73L435.016 371.042L467.357 382.893C465.8 380.781 464.544 378.543 463.762 376.173C458.344 359.801 476.501 269.131 477.113 261.068C477.725 253.004 493.088 329.904 493.088 329.904L506.393 325.979L515.524 355.551L521.235 325.356L531.805 322.258Z" fill="#F44E4E"/>
<path d="M517.367 361.536L515.517 355.551L512.567 371.148L517.367 361.536Z" fill="url(#paint1_linear_133_446)"/>
<path d="M493.075 329.904C493.075 329.904 477.712 253.004 477.1 261.068C476.488 269.131 458.331 359.801 463.749 376.173C464.53 378.543 465.787 380.781 467.344 382.892L500.617 395.08L512.567 371.142L515.517 355.544L506.387 325.972L493.075 329.904Z" fill="#FDC510"/>
<path d="M493.075 329.904C493.075 329.904 477.712 253.004 477.1 261.068C476.488 269.131 458.331 359.801 463.749 376.173C464.53 378.543 465.787 380.781 467.344 382.892L500.617 395.08L512.567 371.142L515.517 355.544L506.387 325.972L493.075 329.904Z" fill="#D7384E"/>
<path d="M223.442 300.987L410.261 310.15L446.517 345.846L272.019 341.377L223.442 300.987Z" fill="black"/>
<path d="M399.607 315.909L230.945 304.331C226.386 304.688 222.433 301.57 222.114 297.353L188.125 204.657C187.805 200.446 191.238 196.739 195.79 196.382L364.452 207.967C369.011 207.609 372.964 210.728 373.283 214.945L407.272 307.641C407.598 311.844 404.159 315.552 399.607 315.909Z" fill="#E3E5FC"/>
<path d="M314.993 263.924C316.996 254.552 309.902 245.029 299.147 242.652C288.392 240.276 278.048 245.947 276.044 255.318C274.04 264.69 281.135 274.214 291.89 276.59C302.645 278.966 312.989 273.296 314.993 263.924Z" fill="#A7ADFF"/>
<path d="M146.587 465.592L98.896 536.594L120.609 555.243L166.04 478.157C166.04 478.151 155.627 466.241 146.587 465.592Z" fill="#D4A79A"/>
<path d="M2.30807 576.196C2.30807 576.196 20.6539 582.564 55.8087 585.212C90.9635 587.867 130.202 589.191 137.333 583.888C144.464 578.586 149.049 533.495 137.333 533.495C125.617 533.495 121.058 550.734 100.394 535.349C82.6926 522.168 68.5473 547.021 37.7234 553.647C6.89941 560.274 -5.58515 562.936 2.30807 576.196Z" fill="#F3AA02"/>
<path d="M443.449 388.818C439.236 380.761 416.429 385.302 389.096 374.968C361.756 364.634 344.1 342.926 313.042 317.915C281.984 292.904 284.107 297.24 270.704 296.208C257.301 295.175 240.707 331.97 231.342 351.407C211.628 392.333 186.679 428.903 149.407 452.696C138.082 459.925 88.1828 487.426 79.8467 498.945C62.2888 523.188 148.613 523.393 171.185 526.193C193.53 528.961 206.06 516.058 215.1 495.668C225.415 472.411 236.702 449.651 247.975 426.89C253.615 415.504 259.281 404.124 264.81 392.677C267.194 387.745 272.351 369.844 278.102 367.613C295.79 360.768 319.138 415.576 324.1 427.89C334.097 452.696 370.691 481.639 397.282 484.532C423.873 487.426 443.873 469.445 452.593 443.189C461.32 416.934 443.449 388.818 443.449 388.818Z" fill="#4B369D"/>
<path d="M237.561 470.974L189.87 541.976L211.583 560.625L257.014 483.539C257.008 483.533 246.601 471.623 237.561 470.974Z" fill="#EAC2AB"/>
<path d="M93.282 581.578C93.282 581.578 111.628 587.947 146.783 590.595C181.937 593.249 221.176 594.573 228.307 589.271C235.438 583.968 240.023 538.878 228.307 538.878C216.591 538.878 212.032 556.117 191.368 540.731C173.666 527.55 159.521 552.403 128.697 559.03C97.8733 565.656 85.3823 568.318 93.282 581.578Z" fill="#FDC510"/>
<path d="M512.482 388.818C508.458 380.761 486.654 385.302 460.525 374.968C434.397 364.634 417.516 342.926 387.826 317.915C358.135 292.904 360.167 297.24 347.357 296.208C334.546 295.175 318.682 331.97 309.734 351.407C282.205 411.194 225.552 451.319 173.992 488.233C170.788 490.524 167.193 493.708 167.857 497.634C168.196 499.633 169.603 501.248 171.042 502.659C190.169 521.427 226.002 529.868 251.752 528.643C277.679 527.411 291.752 505.419 301.547 483.672C319.066 444.765 336.181 404.673 357.464 367.746C365.461 353.883 390.952 409.85 393.166 415.06C406.367 446.175 432.573 480.461 468.36 484.532C493.778 487.425 512.893 469.445 521.235 443.189C529.565 416.934 512.482 388.818 512.482 388.818Z" fill="#5A54FF"/>
<path d="M413.635 65.487C413.635 65.487 393.98 80.2236 401.801 113.325C409.623 146.426 433.947 174.694 443.762 172.701C470.9 167.193 480.415 147.697 489.825 130.967C501.366 110.451 478.454 60.4027 478.454 60.4027L456.813 48.5393L413.635 65.487Z" fill="#EAC2AB"/>
<path d="M452.801 50.863C452.801 50.863 466.458 55.517 478.46 75.0665C490.463 94.6159 482.589 97.8069 482.589 124.016C482.589 131.676 481.176 139.223 477.093 145.75C474.13 150.49 469.903 154.224 466.836 158.872C462.961 164.737 461.723 171.357 462.036 178.355C462.694 193.151 465.019 205.438 477.946 213.793C491.922 222.823 498.441 234.885 502.114 251.184C506.51 270.7 538.161 281.743 549.206 274.295C560.252 266.847 527.305 271.819 533.837 239.704C540.362 207.583 542.603 193.952 523.521 185.028C504.439 176.104 513.557 173.747 523.599 154.198C533.641 134.648 507.754 134.887 517.972 100.859C529.766 61.5811 519.079 17.8084 461.332 29.9101C403.586 42.0118 452.801 50.863 452.801 50.863Z" fill="#4B369D"/>
<path d="M438.741 88.2407C455.309 77.9992 451.297 69.9424 463.853 58.7742C476.403 47.5993 468.373 29.4467 468.373 29.4467C451.805 -5.93168 406.113 19.6686 393.556 42.9453C381 66.2219 391.049 57.3773 381.508 86.7048C374.931 106.916 375.517 117.403 380.297 129.438L407.304 140.553C396.37 98.3828 426.276 95.94 438.741 88.2407Z" fill="#4B369D"/>
<path d="M505.976 360.291C505.976 360.291 505.976 371.658 501.704 369.593C497.432 367.527 457.373 342.099 452.085 336.108C446.797 330.11 434.39 308.409 433.785 304.066C433.172 299.723 435.211 299.518 426.868 300.756C418.532 301.994 403.482 306.754 405.722 309.435C407.956 312.123 414.26 310.262 414.26 310.262C414.26 310.262 406.875 315.016 410.463 315.638C414.052 316.26 424.628 314.188 424.628 317.498C424.628 320.808 424.016 331.97 426.458 337.551C428.9 343.132 431.948 344.992 439.88 346.852C447.813 348.712 449.213 348.09 455.732 354.916C462.251 361.741 498.65 394.604 503.326 396.259C508.002 397.914 510.034 400.807 515.732 390.261C521.431 379.715 525.494 371.658 525.898 355.121C526.302 338.584 524.472 322.669 524.472 322.669L506.374 325.979C506.387 325.979 508.008 344.581 505.976 360.291Z" fill="#EAC2AB"/>
<path d="M564.524 150.305C567.768 135.198 575.009 120.137 580.324 105.632C583.15 97.926 589.357 87.5323 589.988 79.2769C590.197 76.5692 592.737 74.5633 595.661 74.795L703.991 67.3539C706.915 67.5856 709.123 69.9623 708.914 72.6699L687.084 132.205C686.876 134.913 684.336 136.919 681.412 136.687L594.046 142.361C588.692 145.664 580.2 148.968 574.84 152.258C568.894 155.906 561.548 164.168 564.524 150.305Z" fill="#E3E5FC"/>
<path d="M642.922 112.398L678.123 110.842C680.493 110.736 682.343 108.684 682.239 106.274C682.135 103.864 680.116 101.984 677.745 102.09L642.545 103.646C640.174 103.752 638.325 105.804 638.429 108.214C638.533 110.617 640.552 112.497 642.922 112.398Z" fill="white"/>
<path d="M617.608 97.5751L681.379 94.7616C683.75 94.6556 685.599 92.6034 685.495 90.1936C685.391 87.7839 683.372 85.9037 681.001 86.0097L617.23 88.8232C614.86 88.9292 613.01 90.9814 613.115 93.3912C613.219 95.7943 615.238 97.6811 617.608 97.5751Z" fill="white"/>
<path d="M247.389 163.837C243.637 146.346 235.256 128.915 229.095 112.126C225.826 103.209 218.636 91.18 217.906 81.6205C217.665 78.4891 214.728 76.1654 211.342 76.4369L85.9489 67.824C82.5623 68.0888 80.0094 70.8428 80.2504 73.9741L105.519 142.89C105.76 146.022 108.697 148.345 112.084 148.074L213.211 154.648C219.411 158.468 229.232 162.301 235.445 166.107C242.328 170.325 250.834 179.891 247.389 163.837Z" fill="#E3E5FC"/>
<path d="M156.643 119.958L115.9 118.157C113.158 118.038 111.016 115.655 111.133 112.868C111.25 110.081 113.595 107.903 116.337 108.022L157.079 109.823C159.821 109.942 161.964 112.325 161.846 115.112C161.723 117.899 159.385 120.077 156.643 119.958Z" fill="white"/>
<path d="M185.943 102.805L112.123 99.548C109.381 99.4288 107.238 97.0455 107.356 94.2584C107.473 91.4713 109.817 89.2933 112.559 89.4124L186.379 92.6696C189.121 92.7887 191.263 95.172 191.146 97.9591C191.023 100.746 188.685 102.924 185.943 102.805Z" fill="white"/>
<g opacity="0.72">
<path opacity="0.72" d="M316.233 61.8128C313.817 50.5519 308.418 39.3306 304.458 28.5198C302.354 22.7801 297.724 15.0345 297.255 8.87769C297.099 6.85853 295.21 5.36899 293.029 5.54111L212.292 0C210.111 0.172125 208.47 1.94635 208.619 3.95889L224.888 48.3275C225.044 50.3466 226.933 51.8362 229.114 51.6641L294.227 55.8944C298.219 58.3571 304.543 60.8198 308.541 63.2693C312.976 65.9902 318.447 72.147 316.233 61.8128Z" fill="#E3E5FC"/>
<g opacity="0.72">
<path opacity="0.72" d="M257.802 33.5578L231.57 32.3993C229.805 32.3198 228.424 30.7906 228.502 28.9965C228.58 27.2024 230.085 25.7989 231.85 25.8784L258.082 27.0369C259.847 27.1164 261.228 28.6456 261.15 30.4397C261.071 32.2338 259.567 33.6372 257.802 33.5578Z" fill="white"/>
<path opacity="0.72" d="M276.669 22.5153L229.14 20.4167C227.376 20.3373 225.995 18.808 226.073 17.0139C226.151 15.2199 227.656 13.8164 229.42 13.8958L276.949 15.9944C278.714 16.0739 280.095 17.6031 280.016 19.3972C279.938 21.1913 278.434 22.5948 276.669 22.5153Z" fill="white"/>
</g>
</g>
<path d="M321.15 126.009L280.407 124.208C277.665 124.089 275.523 121.706 275.64 118.919C275.757 116.132 278.102 113.954 280.844 114.073L321.586 115.873C324.328 115.993 326.471 118.376 326.353 121.163C326.23 123.95 323.885 126.128 321.15 126.009Z" fill="#E3E5FC"/>
<path d="M325.214 146.247L284.471 144.446C281.729 144.327 279.587 141.944 279.704 139.157C279.821 136.37 282.166 134.191 284.907 134.311L325.65 136.111C328.392 136.23 330.534 138.614 330.417 141.401C330.293 144.188 327.955 146.373 325.214 146.247Z" fill="#E3E5FC"/>
<path d="M332.436 167.028L291.694 165.227C288.952 165.108 286.809 162.725 286.926 159.937C287.044 157.15 289.388 154.972 292.13 155.091L332.873 156.892C335.614 157.011 337.757 159.395 337.64 162.182C337.523 164.969 335.178 167.147 332.436 167.028Z" fill="#E3E5FC"/>
<defs>
<linearGradient id="paint0_linear_133_446" x1="391.849" y1="507.051" x2="361.663" y2="399.746" gradientUnits="userSpaceOnUse">
<stop stop-color="#A7ADFF"/>
<stop offset="1" stop-color="#E3E5FC"/>
</linearGradient>
<linearGradient id="paint1_linear_133_446" x1="514.202" y1="363.534" x2="472.183" y2="214.159" gradientUnits="userSpaceOnUse">
<stop stop-color="#A7ADFF"/>
<stop offset="1" stop-color="#E3E5FC"/>
</linearGradient>
</defs>
</svg>
