<svg width="667" height="330" viewBox="0 0 667 330" fill="none" xmlns="http://www.w3.org/2000/svg">
<path fill-rule="evenodd" clip-rule="evenodd" d="M148.553 308C150.762 308 152.553 306.209 152.553 304C152.553 303.173 152.297 302.367 151.82 301.692L27.4718 125.692C26.7222 124.631 25.504 124 24.2049 124H4.00015C1.79102 124 0.000152588 125.791 0.000152588 128C0.000152588 128.827 0.256271 129.633 0.733276 130.308L112.147 288H17.2764C15.1342 288 13.3854 289.684 13.2813 291.8L13.2764 292V304C13.2764 306.209 15.0673 308 17.2764 308H148.553Z" fill="#D5DCE8"/>
<path fill-rule="evenodd" clip-rule="evenodd" d="M137.88 143.363L106.478 146.065L144.116 204.474C145.924 207.279 149.283 208.668 152.544 207.957L256.808 185.246C262.922 185.758 269.096 183.755 275.329 179.235C278.606 176.859 287.764 182.488 290.367 180.924C291.579 180.195 292.55 180.437 294.246 177.768C295.942 175.099 296.668 172.188 293.512 168.31C290.357 164.431 275.558 157.65 265.374 161.294C258.584 163.724 252.296 168.015 246.511 174.168L160.273 182.175L137.88 143.363Z" fill="#E47070"/>
<path fill-rule="evenodd" clip-rule="evenodd" d="M650.284 239.256L629.936 308.676L546.968 308.131L540.497 283.983L608.73 284.944L619.628 259.481C624.879 247.212 636.939 239.256 650.284 239.256Z" fill="#FF8181"/>
<path fill-rule="evenodd" clip-rule="evenodd" d="M208.284 232.256L371.131 162.979C381.68 158.491 393.93 162.09 400.375 171.571L493.284 308.256H459.284L379.284 223.256L266.284 308.256H208.284V232.256Z" fill="#0A1449"/>
<path fill-rule="evenodd" clip-rule="evenodd" d="M169.284 308.256V228.256C233.055 233.082 299.722 239.582 369.284 247.756C438.847 255.929 505.513 265.096 569.284 275.256V308.256H169.284Z" fill="#0A1449"/>
<path fill-rule="evenodd" clip-rule="evenodd" d="M81.026 44.2895C80.7818 44.2671 80.5344 44.2556 80.2843 44.2556C75.866 44.2556 72.2843 47.8373 72.2843 52.2556C72.2843 56.6739 75.866 60.2556 80.2843 60.2556C80.6209 60.2556 80.9526 60.2348 81.2782 60.1945C83.8402 70.2366 91.1534 78.379 100.682 82.0875L96.2843 124.256L128.284 124.256L123.886 82.0875C135.824 77.4415 144.284 65.8365 144.284 52.2556C144.284 34.5825 129.957 20.2556 112.284 20.2556C97.3516 20.2556 84.8078 30.4839 81.2768 44.3167L81.026 44.2895Z" fill="#FF8181"/>
<path fill-rule="evenodd" clip-rule="evenodd" d="M139.284 35.2557C142.143 30.4625 142.609 25.179 140.682 19.4052C138.756 13.6315 133.362 11.1296 124.5 11.8994C117.023 2.80359 107.618 -1.07764 96.2843 0.255694C79.2843 2.25569 70.0637 11.9358 70.174 17.0957C70.2475 20.5357 71.2843 23.2557 73.2843 25.2557C68.6176 27.3788 66.2843 31.7121 66.2843 38.2557C66.2843 48.071 67.1932 59.3272 75.2843 66.2557C80.6784 70.8747 85.345 73.5413 89.2843 74.2557C86.8623 71.8505 85.1956 69.8505 84.2843 68.2557C83.373 66.6609 82.373 63.9942 81.2843 60.2557C75.2843 59.589 72.2843 56.9224 72.2843 52.2557C72.2843 47.589 75.2843 44.9224 81.2843 44.2557L92.2843 61.2557L93.2843 34.2557C106.194 38.2557 115.194 40.2557 120.284 40.2557C125.374 40.2557 127.935 36.5773 127.968 29.2206L139.284 35.2557Z" fill="#0A1449"/>
<path fill-rule="evenodd" clip-rule="evenodd" d="M91.2843 97.2556H94.2843C107.173 104.589 116.506 108.256 122.284 108.256C128.062 108.256 129.729 104.589 127.284 97.2556H130.284C150.951 100.589 163.951 107.256 169.284 117.256C174.618 127.256 188.284 165.589 210.284 232.256C209.662 246.579 205.662 260.58 198.284 274.256C190.906 287.932 181.24 299.265 169.284 308.256C113.951 238.922 80.6176 191.256 69.2842 165.256C57.9509 139.256 65.2843 116.589 91.2843 97.2556Z" fill="#1755ED"/>
<path fill-rule="evenodd" clip-rule="evenodd" d="M123.576 159.224L93.1206 167.337L140.329 218.324C142.597 220.772 146.146 221.556 149.234 220.291L247.97 179.819C254.08 179.262 259.812 176.217 265.166 170.684C267.981 167.774 277.977 171.727 280.269 169.735C281.336 168.807 282.334 168.877 283.54 165.954C284.747 163.031 284.957 160.038 281.176 156.766C277.395 153.495 261.643 149.386 252.246 154.744C245.982 158.315 240.535 163.633 235.906 170.698L152.368 193.557L123.576 159.224Z" fill="#FF8181"/>
<path d="M131.846 158.209L90.9668 169.384L72.2764 144" stroke="#0A1449" stroke-width="4" stroke-linecap="round" stroke-linejoin="round"/>
<path fill-rule="evenodd" clip-rule="evenodd" d="M342.968 52.3784L345.295 146.82C345.177 146.872 345.059 146.928 344.941 146.987C344.876 147.019 344.812 147.052 344.748 147.085L235.801 204.73C233.593 205.898 232.356 208.216 233.004 209.968C233.646 211.704 235.958 212.22 238.167 211.12L347.864 156.515C348.102 156.429 348.328 156.311 348.534 156.17C351.625 154.457 353.359 151.166 352.431 148.658C351.958 147.378 350.86 146.556 349.474 146.265L347.133 51.2684C347.108 50.2878 346.157 49.7412 345.006 50.0478C343.856 50.3543 342.944 51.3977 342.968 52.3784Z" fill="#727376"/>
</svg>
